<svg width="100%" height="100%" viewBox="-1 -1 27 27" xmlns="http://www.w3.org/2000/svg" xmlns:xlink="http://www.w3.org/1999/xlink" shape-rendering="geometricPrecision" id="qr code"><rect id="qr background" fill-opacity="1" fill="rgb(255, 255, 255)" x="-1" y="-1" width="27" height="27" ry="2.25"></rect><path fill-opacity="1" fill="rgb(0, 0, 0)" id="qr pixels" d="M8.5,0.04999999999999999h0a0.45,0.45 0 0 1 0.45,0.45v0a0.45,0.45 0 0 1 -0.45,0.45h0a0.45,0.45 0 0 1 -0.45,-0.45v0a0.45,0.45 0 0 1 0.45,-0.45zM10.5,0.04999999999999999h0a0.45,0.45 0 0 1 0.45,0.45v0a0.45,0.45 0 0 1 -0.45,0.45h0a0.45,0.45 0 0 1 -0.45,-0.45v0a0.45,0.45 0 0 1 0.45,-0.45zM11.5,0.04999999999999999h0a0.45,0.45 0 0 1 0.45,0.45v0a0.45,0.45 0 0 1 -0.45,0.45h0a0.45,0.45 0 0 1 -0.45,-0.45v0a0.45,0.45 0 0 1 0.45,-0.45zM12.5,0.04999999999999999h0a0.45,0.45 0 0 1 0.45,0.45v0a0.45,0.45 0 0 1 -0.45,0.45h0a0.45,0.45 0 0 1 -0.45,-0.45v0a0.45,0.45 0 0 1 0.45,-0.45zM14.5,0.04999999999999999h0a0.45,0.45 0 0 1 0.45,0.45v0a0.45,0.45 0 0 1 -0.45,0.45h0a0.45,0.45 0 0 1 -0.45,-0.45v0a0.45,0.45 0 0 1 0.45,-0.45zM15.5,0.04999999999999999h0a0.45,0.45 0 0 1 0.45,0.45v0a0.45,0.45 0 0 1 -0.45,0.45h0a0.45,0.45 0 0 1 -0.45,-0.45v0a0.45,0.45 0 0 1 0.45,-0.45zM10.5,1.05h0a0.45,0.45 0 0 1 0.45,0.45v0a0.45,0.45 0 0 1 -0.45,0.45h0a0.45,0.45 0 0 1 -0.45,-0.45v0a0.45,0.45 0 0 1 0.45,-0.45zM13.5,1.05h0a0.45,0.45 0 0 1 0.45,0.45v0a0.45,0.45 0 0 1 -0.45,0.45h0a0.45,0.45 0 0 1 -0.45,-0.45v0a0.45,0.45 0 0 1 0.45,-0.45zM8.5,2.05h0a0.45,0.45 0 0 1 0.45,0.45v0a0.45,0.45 0 0 1 -0.45,0.45h0a0.45,0.45 0 0 1 -0.45,-0.45v0a0.45,0.45 0 0 1 0.45,-0.45zM12.5,2.05h0a0.45,0.45 0 0 1 0.45,0.45v0a0.45,0.45 0 0 1 -0.45,0.45h0a0.45,0.45 0 0 1 -0.45,-0.45v0a0.45,0.45 0 0 1 0.45,-0.45zM13.5,2.05h0a0.45,0.45 0 0 1 0.45,0.45v0a0.45,0.45 0 0 1 -0.45,0.45h0a0.45,0.45 0 0 1 -0.45,-0.45v0a0.45,0.45 0 0 1 0.45,-0.45zM10.5,3.05h0a0.45,0.45 0 0 1 0.45,0.45v0a0.45,0.45 0 0 1 -0.45,0.45h0a0.45,0.45 0 0 1 -0.45,-0.45v0a0.45,0.45 0 0 1 0.45,-0.45zM12.5,3.05h0a0.45,0.45 0 0 1 0.45,0.45v0a0.45,0.45 0 0 1 -0.45,0.45h0a0.45,0.45 0 0 1 -0.45,-0.45v0a0.45,0.45 0 0 1 0.45,-0.45zM16.5,3.05h0a0.45,0.45 0 0 1 0.45,0.45v0a0.45,0.45 0 0 1 -0.45,0.45h0a0.45,0.45 0 0 1 -0.45,-0.45v0a0.45,0.45 0 0 1 0.45,-0.45zM8.5,4.05h0a0.45,0.45 0 0 1 0.45,0.45v0a0.45,0.45 0 0 1 -0.45,0.45h0a0.45,0.45 0 0 1 -0.45,-0.45v0a0.45,0.45 0 0 1 0.45,-0.45zM9.5,4.05h0a0.45,0.45 0 0 1 0.45,0.45v0a0.45,0.45 0 0 1 -0.45,0.45h0a0.45,0.45 0 0 1 -0.45,-0.45v0a0.45,0.45 0 0 1 0.45,-0.45zM11.5,4.05h0a0.45,0.45 0 0 1 0.45,0.45v0a0.45,0.45 0 0 1 -0.45,0.45h0a0.45,0.45 0 0 1 -0.45,-0.45v0a0.45,0.45 0 0 1 0.45,-0.45zM14.5,4.05h0a0.45,0.45 0 0 1 0.45,0.45v0a0.45,0.45 0 0 1 -0.45,0.45h0a0.45,0.45 0 0 1 -0.45,-0.45v0a0.45,0.45 0 0 1 0.45,-0.45zM15.5,4.05h0a0.45,0.45 0 0 1 0.45,0.45v0a0.45,0.45 0 0 1 -0.45,0.45h0a0.45,0.45 0 0 1 -0.45,-0.45v0a0.45,0.45 0 0 1 0.45,-0.45zM9.5,5.05h0a0.45,0.45 0 0 1 0.45,0.45v0a0.45,0.45 0 0 1 -0.45,0.45h0a0.45,0.45 0 0 1 -0.45,-0.45v0a0.45,0.45 0 0 1 0.45,-0.45zM11.5,5.05h0a0.45,0.45 0 0 1 0.45,0.45v0a0.45,0.45 0 0 1 -0.45,0.45h0a0.45,0.45 0 0 1 -0.45,-0.45v0a0.45,0.45 0 0 1 0.45,-0.45zM12.5,5.05h0a0.45,0.45 0 0 1 0.45,0.45v0a0.45,0.45 0 0 1 -0.45,0.45h0a0.45,0.45 0 0 1 -0.45,-0.45v0a0.45,0.45 0 0 1 0.45,-0.45zM16.5,5.05h0a0.45,0.45 0 0 1 0.45,0.45v0a0.45,0.45 0 0 1 -0.45,0.45h0a0.45,0.45 0 0 1 -0.45,-0.45v0a0.45,0.45 0 0 1 0.45,-0.45zM9.5,6.05h0a0.45,0.45 0 0 1 0.45,0.45v0a0.45,0.45 0 0 1 -0.45,0.45h0a0.45,0.45 0 0 1 -0.45,-0.45v0a0.45,0.45 0 0 1 0.45,-0.45zM11.5,6.05h0a0.45,0.45 0 0 1 0.45,0.45v0a0.45,0.45 0 0 1 -0.45,0.45h0a0.45,0.45 0 0 1 -0.45,-0.45v0a0.45,0.45 0 0 1 0.45,-0.45zM13.5,6.05h0a0.45,0.45 0 0 1 0.45,0.45v0a0.45,0.45 0 0 1 -0.45,0.45h0a0.45,0.45 0 0 1 -0.45,-0.45v0a0.45,0.45 0 0 1 0.45,-0.45zM15.5,6.05h0a0.45,0.45 0 0 1 0.45,0.45v0a0.45,0.45 0 0 1 -0.45,0.45h0a0.45,0.45 0 0 1 -0.45,-0.45v0a0.45,0.45 0 0 1 0.45,-0.45zM8.5,7.05h0a0.45,0.45 0 0 1 0.45,0.45v0a0.45,0.45 0 0 1 -0.45,0.45h0a0.45,0.45 0 0 1 -0.45,-0.45v0a0.45,0.45 0 0 1 0.45,-0.45zM9.5,7.05h0a0.45,0.45 0 0 1 0.45,0.45v0a0.45,0.45 0 0 1 -0.45,0.45h0a0.45,0.45 0 0 1 -0.45,-0.45v0a0.45,0.45 0 0 1 0.45,-0.45zM10.5,7.05h0a0.45,0.45 0 0 1 0.45,0.45v0a0.45,0.45 0 0 1 -0.45,0.45h0a0.45,0.45 0 0 1 -0.45,-0.45v0a0.45,0.45 0 0 1 0.45,-0.45zM11.5,7.05h0a0.45,0.45 0 0 1 0.45,0.45v0a0.45,0.45 0 0 1 -0.45,0.45h0a0.45,0.45 0 0 1 -0.45,-0.45v0a0.45,0.45 0 0 1 0.45,-0.45zM13.5,7.05h0a0.45,0.45 0 0 1 0.45,0.45v0a0.45,0.45 0 0 1 -0.45,0.45h0a0.45,0.45 0 0 1 -0.45,-0.45v0a0.45,0.45 0 0 1 0.45,-0.45zM5.5,8.05h0a0.45,0.45 0 0 1 0.45,0.45v0a0.45,0.45 0 0 1 -0.45,0.45h0a0.45,0.45 0 0 1 -0.45,-0.45v0a0.45,0.45 0 0 1 0.45,-0.45zM11.5,8.05h0a0.45,0.45 0 0 1 0.45,0.45v0a0.45,0.45 0 0 1 -0.45,0.45h0a0.45,0.45 0 0 1 -0.45,-0.45v0a0.45,0.45 0 0 1 0.45,-0.45zM14.5,8.05h0a0.45,0.45 0 0 1 0.45,0.45v0a0.45,0.45 0 0 1 -0.45,0.45h0a0.45,0.45 0 0 1 -0.45,-0.45v0a0.45,0.45 0 0 1 0.45,-0.45zM16.5,8.05h0a0.45,0.45 0 0 1 0.45,0.45v0a0.45,0.45 0 0 1 -0.45,0.45h0a0.45,0.45 0 0 1 -0.45,-0.45v0a0.45,0.45 0 0 1 0.45,-0.45zM18.5,8.05h0a0.45,0.45 0 0 1 0.45,0.45v0a0.45,0.45 0 0 1 -0.45,0.45h0a0.45,0.45 0 0 1 -0.45,-0.45v0a0.45,0.45 0 0 1 0.45,-0.45zM20.5,8.05h0a0.45,0.45 0 0 1 0.45,0.45v0a0.45,0.45 0 0 1 -0.45,0.45h0a0.45,0.45 0 0 1 -0.45,-0.45v0a0.45,0.45 0 0 1 0.45,-0.45zM22.5,8.05h0a0.45,0.45 0 0 1 0.45,0.45v0a0.45,0.45 0 0 1 -0.45,0.45h0a0.45,0.45 0 0 1 -0.45,-0.45v0a0.45,0.45 0 0 1 0.45,-0.45zM24.5,8.05h0a0.45,0.45 0 0 1 0.45,0.45v0a0.45,0.45 0 0 1 -0.45,0.45h0a0.45,0.45 0 0 1 -0.45,-0.45v0a0.45,0.45 0 0 1 0.45,-0.45zM0.5,9.05h0a0.45,0.45 0 0 1 0.45,0.45v0a0.45,0.45 0 0 1 -0.45,0.45h0a0.45,0.45 0 0 1 -0.45,-0.45v0a0.45,0.45 0 0 1 0.45,-0.45zM2.5,9.05h0a0.45,0.45 0 0 1 0.45,0.45v0a0.45,0.45 0 0 1 -0.45,0.45h0a0.45,0.45 0 0 1 -0.45,-0.45v0a0.45,0.45 0 0 1 0.45,-0.45zM4.5,9.05h0a0.45,0.45 0 0 1 0.45,0.45v0a0.45,0.45 0 0 1 -0.45,0.45h0a0.45,0.45 0 0 1 -0.45,-0.45v0a0.45,0.45 0 0 1 0.45,-0.45zM6.5,9.05h0a0.45,0.45 0 0 1 0.45,0.45v0a0.45,0.45 0 0 1 -0.45,0.45h0a0.45,0.45 0 0 1 -0.45,-0.45v0a0.45,0.45 0 0 1 0.45,-0.45zM7.5,9.05h0a0.45,0.45 0 0 1 0.45,0.45v0a0.45,0.45 0 0 1 -0.45,0.45h0a0.45,0.45 0 0 1 -0.45,-0.45v0a0.45,0.45 0 0 1 0.45,-0.45zM8.5,9.05h0a0.45,0.45 0 0 1 0.45,0.45v0a0.45,0.45 0 0 1 -0.45,0.45h0a0.45,0.45 0 0 1 -0.45,-0.45v0a0.45,0.45 0 0 1 0.45,-0.45zM10.5,9.05h0a0.45,0.45 0 0 1 0.45,0.45v0a0.45,0.45 0 0 1 -0.45,0.45h0a0.45,0.45 0 0 1 -0.45,-0.45v0a0.45,0.45 0 0 1 0.45,-0.45zM11.5,9.05h0a0.45,0.45 0 0 1 0.45,0.45v0a0.45,0.45 0 0 1 -0.45,0.45h0a0.45,0.45 0 0 1 -0.45,-0.45v0a0.45,0.45 0 0 1 0.45,-0.45zM12.5,9.05h0a0.45,0.45 0 0 1 0.45,0.45v0a0.45,0.45 0 0 1 -0.45,0.45h0a0.45,0.45 0 0 1 -0.45,-0.45v0a0.45,0.45 0 0 1 0.45,-0.45zM13.5,9.05h0a0.45,0.45 0 0 1 0.45,0.45v0a0.45,0.45 0 0 1 -0.45,0.45h0a0.45,0.45 0 0 1 -0.45,-0.45v0a0.45,0.45 0 0 1 0.45,-0.45zM14.5,9.05h0a0.45,0.45 0 0 1 0.45,0.45v0a0.45,0.45 0 0 1 -0.45,0.45h0a0.45,0.45 0 0 1 -0.45,-0.45v0a0.45,0.45 0 0 1 0.45,-0.45zM15.5,9.05h0a0.45,0.45 0 0 1 0.45,0.45v0a0.45,0.45 0 0 1 -0.45,0.45h0a0.45,0.45 0 0 1 -0.45,-0.45v0a0.45,0.45 0 0 1 0.45,-0.45zM18.5,9.05h0a0.45,0.45 0 0 1 0.45,0.45v0a0.45,0.45 0 0 1 -0.45,0.45h0a0.45,0.45 0 0 1 -0.45,-0.45v0a0.45,0.45 0 0 1 0.45,-0.45zM20.5,9.05h0a0.45,0.45 0 0 1 0.45,0.45v0a0.45,0.45 0 0 1 -0.45,0.45h0a0.45,0.45 0 0 1 -0.45,-0.45v0a0.45,0.45 0 0 1 0.45,-0.45zM23.5,9.05h0a0.45,0.45 0 0 1 0.45,0.45v0a0.45,0.45 0 0 1 -0.45,0.45h0a0.45,0.45 0 0 1 -0.45,-0.45v0a0.45,0.45 0 0 1 0.45,-0.45zM24.5,9.05h0a0.45,0.45 0 0 1 0.45,0.45v0a0.45,0.45 0 0 1 -0.45,0.45h0a0.45,0.45 0 0 1 -0.45,-0.45v0a0.45,0.45 0 0 1 0.45,-0.45zM3.5,10.05h0a0.45,0.45 0 0 1 0.45,0.45v0a0.45,0.45 0 0 1 -0.45,0.45h0a0.45,0.45 0 0 1 -0.45,-0.45v0a0.45,0.45 0 0 1 0.45,-0.45zM4.5,10.05h0a0.45,0.45 0 0 1 0.45,0.45v0a0.45,0.45 0 0 1 -0.45,0.45h0a0.45,0.45 0 0 1 -0.45,-0.45v0a0.45,0.45 0 0 1 0.45,-0.45zM10.5,10.05h0a0.45,0.45 0 0 1 0.45,0.45v0a0.45,0.45 0 0 1 -0.45,0.45h0a0.45,0.45 0 0 1 -0.45,-0.45v0a0.45,0.45 0 0 1 0.45,-0.45zM13.5,10.05h0a0.45,0.45 0 0 1 0.45,0.45v0a0.45,0.45 0 0 1 -0.45,0.45h0a0.45,0.45 0 0 1 -0.45,-0.45v0a0.45,0.45 0 0 1 0.45,-0.45zM14.5,10.05h0a0.45,0.45 0 0 1 0.45,0.45v0a0.45,0.45 0 0 1 -0.45,0.45h0a0.45,0.45 0 0 1 -0.45,-0.45v0a0.45,0.45 0 0 1 0.45,-0.45zM16.5,10.05h0a0.45,0.45 0 0 1 0.45,0.45v0a0.45,0.45 0 0 1 -0.45,0.45h0a0.45,0.45 0 0 1 -0.45,-0.45v0a0.45,0.45 0 0 1 0.45,-0.45zM19.5,10.05h0a0.45,0.45 0 0 1 0.45,0.45v0a0.45,0.45 0 0 1 -0.45,0.45h0a0.45,0.45 0 0 1 -0.45,-0.45v0a0.45,0.45 0 0 1 0.45,-0.45zM21.5,10.05h0a0.45,0.45 0 0 1 0.45,0.45v0a0.45,0.45 0 0 1 -0.45,0.45h0a0.45,0.45 0 0 1 -0.45,-0.45v0a0.45,0.45 0 0 1 0.45,-0.45zM22.5,10.05h0a0.45,0.45 0 0 1 0.45,0.45v0a0.45,0.45 0 0 1 -0.45,0.45h0a0.45,0.45 0 0 1 -0.45,-0.45v0a0.45,0.45 0 0 1 0.45,-0.45zM0.5,11.05h0a0.45,0.45 0 0 1 0.45,0.45v0a0.45,0.45 0 0 1 -0.45,0.45h0a0.45,0.45 0 0 1 -0.45,-0.45v0a0.45,0.45 0 0 1 0.45,-0.45zM3.5,11.05h0a0.45,0.45 0 0 1 0.45,0.45v0a0.45,0.45 0 0 1 -0.45,0.45h0a0.45,0.45 0 0 1 -0.45,-0.45v0a0.45,0.45 0 0 1 0.45,-0.45zM4.5,11.05h0a0.45,0.45 0 0 1 0.45,0.45v0a0.45,0.45 0 0 1 -0.45,0.45h0a0.45,0.45 0 0 1 -0.45,-0.45v0a0.45,0.45 0 0 1 0.45,-0.45zM5.5,11.05h0a0.45,0.45 0 0 1 0.45,0.45v0a0.45,0.45 0 0 1 -0.45,0.45h0a0.45,0.45 0 0 1 -0.45,-0.45v0a0.45,0.45 0 0 1 0.45,-0.45zM6.5,11.05h0a0.45,0.45 0 0 1 0.45,0.45v0a0.45,0.45 0 0 1 -0.45,0.45h0a0.45,0.45 0 0 1 -0.45,-0.45v0a0.45,0.45 0 0 1 0.45,-0.45zM8.5,11.05h0a0.45,0.45 0 0 1 0.45,0.45v0a0.45,0.45 0 0 1 -0.45,0.45h0a0.45,0.45 0 0 1 -0.45,-0.45v0a0.45,0.45 0 0 1 0.45,-0.45zM12.5,11.05h0a0.45,0.45 0 0 1 0.45,0.45v0a0.45,0.45 0 0 1 -0.45,0.45h0a0.45,0.45 0 0 1 -0.45,-0.45v0a0.45,0.45 0 0 1 0.45,-0.45zM13.5,11.05h0a0.45,0.45 0 0 1 0.45,0.45v0a0.45,0.45 0 0 1 -0.45,0.45h0a0.45,0.45 0 0 1 -0.45,-0.45v0a0.45,0.45 0 0 1 0.45,-0.45zM14.5,11.05h0a0.45,0.45 0 0 1 0.45,0.45v0a0.45,0.45 0 0 1 -0.45,0.45h0a0.45,0.45 0 0 1 -0.45,-0.45v0a0.45,0.45 0 0 1 0.45,-0.45zM16.5,11.05h0a0.45,0.45 0 0 1 0.45,0.45v0a0.45,0.45 0 0 1 -0.45,0.45h0a0.45,0.45 0 0 1 -0.45,-0.45v0a0.45,0.45 0 0 1 0.45,-0.45zM19.5,11.05h0a0.45,0.45 0 0 1 0.45,0.45v0a0.45,0.45 0 0 1 -0.45,0.45h0a0.45,0.45 0 0 1 -0.45,-0.45v0a0.45,0.45 0 0 1 0.45,-0.45zM21.5,11.05h0a0.45,0.45 0 0 1 0.45,0.45v0a0.45,0.45 0 0 1 -0.45,0.45h0a0.45,0.45 0 0 1 -0.45,-0.45v0a0.45,0.45 0 0 1 0.45,-0.45zM22.5,11.05h0a0.45,0.45 0 0 1 0.45,0.45v0a0.45,0.45 0 0 1 -0.45,0.45h0a0.45,0.45 0 0 1 -0.45,-0.45v0a0.45,0.45 0 0 1 0.45,-0.45zM23.5,11.05h0a0.45,0.45 0 0 1 0.45,0.45v0a0.45,0.45 0 0 1 -0.45,0.45h0a0.45,0.45 0 0 1 -0.45,-0.45v0a0.45,0.45 0 0 1 0.45,-0.45zM0.5,12.05h0a0.45,0.45 0 0 1 0.45,0.45v0a0.45,0.45 0 0 1 -0.45,0.45h0a0.45,0.45 0 0 1 -0.45,-0.45v0a0.45,0.45 0 0 1 0.45,-0.45zM1.5,12.05h0a0.45,0.45 0 0 1 0.45,0.45v0a0.45,0.45 0 0 1 -0.45,0.45h0a0.45,0.45 0 0 1 -0.45,-0.45v0a0.45,0.45 0 0 1 0.45,-0.45zM2.5,12.05h0a0.45,0.45 0 0 1 0.45,0.45v0a0.45,0.45 0 0 1 -0.45,0.45h0a0.45,0.45 0 0 1 -0.45,-0.45v0a0.45,0.45 0 0 1 0.45,-0.45zM3.5,12.05h0a0.45,0.45 0 0 1 0.45,0.45v0a0.45,0.45 0 0 1 -0.45,0.45h0a0.45,0.45 0 0 1 -0.45,-0.45v0a0.45,0.45 0 0 1 0.45,-0.45zM5.5,12.05h0a0.45,0.45 0 0 1 0.45,0.45v0a0.45,0.45 0 0 1 -0.45,0.45h0a0.45,0.45 0 0 1 -0.45,-0.45v0a0.45,0.45 0 0 1 0.45,-0.45zM7.5,12.05h0a0.45,0.45 0 0 1 0.45,0.45v0a0.45,0.45 0 0 1 -0.45,0.45h0a0.45,0.45 0 0 1 -0.45,-0.45v0a0.45,0.45 0 0 1 0.45,-0.45zM8.5,12.05h0a0.45,0.45 0 0 1 0.45,0.45v0a0.45,0.45 0 0 1 -0.45,0.45h0a0.45,0.45 0 0 1 -0.45,-0.45v0a0.45,0.45 0 0 1 0.45,-0.45zM10.5,12.05h0a0.45,0.45 0 0 1 0.45,0.45v0a0.45,0.45 0 0 1 -0.45,0.45h0a0.45,0.45 0 0 1 -0.45,-0.45v0a0.45,0.45 0 0 1 0.45,-0.45zM12.5,12.05h0a0.45,0.45 0 0 1 0.45,0.45v0a0.45,0.45 0 0 1 -0.45,0.45h0a0.45,0.45 0 0 1 -0.45,-0.45v0a0.45,0.45 0 0 1 0.45,-0.45zM16.5,12.05h0a0.45,0.45 0 0 1 0.45,0.45v0a0.45,0.45 0 0 1 -0.45,0.45h0a0.45,0.45 0 0 1 -0.45,-0.45v0a0.45,0.45 0 0 1 0.45,-0.45zM19.5,12.05h0a0.45,0.45 0 0 1 0.45,0.45v0a0.45,0.45 0 0 1 -0.45,0.45h0a0.45,0.45 0 0 1 -0.45,-0.45v0a0.45,0.45 0 0 1 0.45,-0.45zM21.5,12.05h0a0.45,0.45 0 0 1 0.45,0.45v0a0.45,0.45 0 0 1 -0.45,0.45h0a0.45,0.45 0 0 1 -0.45,-0.45v0a0.45,0.45 0 0 1 0.45,-0.45zM23.5,12.05h0a0.45,0.45 0 0 1 0.45,0.45v0a0.45,0.45 0 0 1 -0.45,0.45h0a0.45,0.45 0 0 1 -0.45,-0.45v0a0.45,0.45 0 0 1 0.45,-0.45zM24.5,12.05h0a0.45,0.45 0 0 1 0.45,0.45v0a0.45,0.45 0 0 1 -0.45,0.45h0a0.45,0.45 0 0 1 -0.45,-0.45v0a0.45,0.45 0 0 1 0.45,-0.45zM2.5,13.05h0a0.45,0.45 0 0 1 0.45,0.45v0a0.45,0.45 0 0 1 -0.45,0.45h0a0.45,0.45 0 0 1 -0.45,-0.45v0a0.45,0.45 0 0 1 0.45,-0.45zM3.5,13.05h0a0.45,0.45 0 0 1 0.45,0.45v0a0.45,0.45 0 0 1 -0.45,0.45h0a0.45,0.45 0 0 1 -0.45,-0.45v0a0.45,0.45 0 0 1 0.45,-0.45zM4.5,13.05h0a0.45,0.45 0 0 1 0.45,0.45v0a0.45,0.45 0 0 1 -0.45,0.45h0a0.45,0.45 0 0 1 -0.45,-0.45v0a0.45,0.45 0 0 1 0.45,-0.45zM6.5,13.05h0a0.45,0.45 0 0 1 0.45,0.45v0a0.45,0.45 0 0 1 -0.45,0.45h0a0.45,0.45 0 0 1 -0.45,-0.45v0a0.45,0.45 0 0 1 0.45,-0.45zM8.5,13.05h0a0.45,0.45 0 0 1 0.45,0.45v0a0.45,0.45 0 0 1 -0.45,0.45h0a0.45,0.45 0 0 1 -0.45,-0.45v0a0.45,0.45 0 0 1 0.45,-0.45zM9.5,13.05h0a0.45,0.45 0 0 1 0.45,0.45v0a0.45,0.45 0 0 1 -0.45,0.45h0a0.45,0.45 0 0 1 -0.45,-0.45v0a0.45,0.45 0 0 1 0.45,-0.45zM11.5,13.05h0a0.45,0.45 0 0 1 0.45,0.45v0a0.45,0.45 0 0 1 -0.45,0.45h0a0.45,0.45 0 0 1 -0.45,-0.45v0a0.45,0.45 0 0 1 0.45,-0.45zM13.5,13.05h0a0.45,0.45 0 0 1 0.45,0.45v0a0.45,0.45 0 0 1 -0.45,0.45h0a0.45,0.45 0 0 1 -0.45,-0.45v0a0.45,0.45 0 0 1 0.45,-0.45zM14.5,13.05h0a0.45,0.45 0 0 1 0.45,0.45v0a0.45,0.45 0 0 1 -0.45,0.45h0a0.45,0.45 0 0 1 -0.45,-0.45v0a0.45,0.45 0 0 1 0.45,-0.45zM15.5,13.05h0a0.45,0.45 0 0 1 0.45,0.45v0a0.45,0.45 0 0 1 -0.45,0.45h0a0.45,0.45 0 0 1 -0.45,-0.45v0a0.45,0.45 0 0 1 0.45,-0.45zM16.5,13.05h0a0.45,0.45 0 0 1 0.45,0.45v0a0.45,0.45 0 0 1 -0.45,0.45h0a0.45,0.45 0 0 1 -0.45,-0.45v0a0.45,0.45 0 0 1 0.45,-0.45zM18.5,13.05h0a0.45,0.45 0 0 1 0.45,0.45v0a0.45,0.45 0 0 1 -0.45,0.45h0a0.45,0.45 0 0 1 -0.45,-0.45v0a0.45,0.45 0 0 1 0.45,-0.45zM20.5,13.05h0a0.45,0.45 0 0 1 0.45,0.45v0a0.45,0.45 0 0 1 -0.45,0.45h0a0.45,0.45 0 0 1 -0.45,-0.45v0a0.45,0.45 0 0 1 0.45,-0.45zM22.5,13.05h0a0.45,0.45 0 0 1 0.45,0.45v0a0.45,0.45 0 0 1 -0.45,0.45h0a0.45,0.45 0 0 1 -0.45,-0.45v0a0.45,0.45 0 0 1 0.45,-0.45zM23.5,13.05h0a0.45,0.45 0 0 1 0.45,0.45v0a0.45,0.45 0 0 1 -0.45,0.45h0a0.45,0.45 0 0 1 -0.45,-0.45v0a0.45,0.45 0 0 1 0.45,-0.45zM24.5,13.05h0a0.45,0.45 0 0 1 0.45,0.45v0a0.45,0.45 0 0 1 -0.45,0.45h0a0.45,0.45 0 0 1 -0.45,-0.45v0a0.45,0.45 0 0 1 0.45,-0.45zM1.5,14.05h0a0.45,0.45 0 0 1 0.45,0.45v0a0.45,0.45 0 0 1 -0.45,0.45h0a0.45,0.45 0 0 1 -0.45,-0.45v0a0.45,0.45 0 0 1 0.45,-0.45zM2.5,14.05h0a0.45,0.45 0 0 1 0.45,0.45v0a0.45,0.45 0 0 1 -0.45,0.45h0a0.45,0.45 0 0 1 -0.45,-0.45v0a0.45,0.45 0 0 1 0.45,-0.45zM5.5,14.05h0a0.45,0.45 0 0 1 0.45,0.45v0a0.45,0.45 0 0 1 -0.45,0.45h0a0.45,0.45 0 0 1 -0.45,-0.45v0a0.45,0.45 0 0 1 0.45,-0.45zM7.5,14.05h0a0.45,0.45 0 0 1 0.45,0.45v0a0.45,0.45 0 0 1 -0.45,0.45h0a0.45,0.45 0 0 1 -0.45,-0.45v0a0.45,0.45 0 0 1 0.45,-0.45zM8.5,14.05h0a0.45,0.45 0 0 1 0.45,0.45v0a0.45,0.45 0 0 1 -0.45,0.45h0a0.45,0.45 0 0 1 -0.45,-0.45v0a0.45,0.45 0 0 1 0.45,-0.45zM11.5,14.05h0a0.45,0.45 0 0 1 0.45,0.45v0a0.45,0.45 0 0 1 -0.45,0.45h0a0.45,0.45 0 0 1 -0.45,-0.45v0a0.45,0.45 0 0 1 0.45,-0.45zM12.5,14.05h0a0.45,0.45 0 0 1 0.45,0.45v0a0.45,0.45 0 0 1 -0.45,0.45h0a0.45,0.45 0 0 1 -0.45,-0.45v0a0.45,0.45 0 0 1 0.45,-0.45zM14.5,14.05h0a0.45,0.45 0 0 1 0.45,0.45v0a0.45,0.45 0 0 1 -0.45,0.45h0a0.45,0.45 0 0 1 -0.45,-0.45v0a0.45,0.45 0 0 1 0.45,-0.45zM17.5,14.05h0a0.45,0.45 0 0 1 0.45,0.45v0a0.45,0.45 0 0 1 -0.45,0.45h0a0.45,0.45 0 0 1 -0.45,-0.45v0a0.45,0.45 0 0 1 0.45,-0.45zM19.5,14.05h0a0.45,0.45 0 0 1 0.45,0.45v0a0.45,0.45 0 0 1 -0.45,0.45h0a0.45,0.45 0 0 1 -0.45,-0.45v0a0.45,0.45 0 0 1 0.45,-0.45zM20.5,14.05h0a0.45,0.45 0 0 1 0.45,0.45v0a0.45,0.45 0 0 1 -0.45,0.45h0a0.45,0.45 0 0 1 -0.45,-0.45v0a0.45,0.45 0 0 1 0.45,-0.45zM21.5,14.05h0a0.45,0.45 0 0 1 0.45,0.45v0a0.45,0.45 0 0 1 -0.45,0.45h0a0.45,0.45 0 0 1 -0.45,-0.45v0a0.45,0.45 0 0 1 0.45,-0.45zM1.5,15.05h0a0.45,0.45 0 0 1 0.45,0.45v0a0.45,0.45 0 0 1 -0.45,0.45h0a0.45,0.45 0 0 1 -0.45,-0.45v0a0.45,0.45 0 0 1 0.45,-0.45zM5.5,15.05h0a0.45,0.45 0 0 1 0.45,0.45v0a0.45,0.45 0 0 1 -0.45,0.45h0a0.45,0.45 0 0 1 -0.45,-0.45v0a0.45,0.45 0 0 1 0.45,-0.45zM6.5,15.05h0a0.45,0.45 0 0 1 0.45,0.45v0a0.45,0.45 0 0 1 -0.45,0.45h0a0.45,0.45 0 0 1 -0.45,-0.45v0a0.45,0.45 0 0 1 0.45,-0.45zM7.5,15.05h0a0.45,0.45 0 0 1 0.45,0.45v0a0.45,0.45 0 0 1 -0.45,0.45h0a0.45,0.45 0 0 1 -0.45,-0.45v0a0.45,0.45 0 0 1 0.45,-0.45zM8.5,15.05h0a0.45,0.45 0 0 1 0.45,0.45v0a0.45,0.45 0 0 1 -0.45,0.45h0a0.45,0.45 0 0 1 -0.45,-0.45v0a0.45,0.45 0 0 1 0.45,-0.45zM11.5,15.05h0a0.45,0.45 0 0 1 0.45,0.45v0a0.45,0.45 0 0 1 -0.45,0.45h0a0.45,0.45 0 0 1 -0.45,-0.45v0a0.45,0.45 0 0 1 0.45,-0.45zM13.5,15.05h0a0.45,0.45 0 0 1 0.45,0.45v0a0.45,0.45 0 0 1 -0.45,0.45h0a0.45,0.45 0 0 1 -0.45,-0.45v0a0.45,0.45 0 0 1 0.45,-0.45zM16.5,15.05h0a0.45,0.45 0 0 1 0.45,0.45v0a0.45,0.45 0 0 1 -0.45,0.45h0a0.45,0.45 0 0 1 -0.45,-0.45v0a0.45,0.45 0 0 1 0.45,-0.45zM18.5,15.05h0a0.45,0.45 0 0 1 0.45,0.45v0a0.45,0.45 0 0 1 -0.45,0.45h0a0.45,0.45 0 0 1 -0.45,-0.45v0a0.45,0.45 0 0 1 0.45,-0.45zM19.5,15.05h0a0.45,0.45 0 0 1 0.45,0.45v0a0.45,0.45 0 0 1 -0.45,0.45h0a0.45,0.45 0 0 1 -0.45,-0.45v0a0.45,0.45 0 0 1 0.45,-0.45zM20.5,15.05h0a0.45,0.45 0 0 1 0.45,0.45v0a0.45,0.45 0 0 1 -0.45,0.45h0a0.45,0.45 0 0 1 -0.45,-0.45v0a0.45,0.45 0 0 1 0.45,-0.45zM22.5,15.05h0a0.45,0.45 0 0 1 0.45,0.45v0a0.45,0.45 0 0 1 -0.45,0.45h0a0.45,0.45 0 0 1 -0.45,-0.45v0a0.45,0.45 0 0 1 0.45,-0.45zM23.5,15.05h0a0.45,0.45 0 0 1 0.45,0.45v0a0.45,0.45 0 0 1 -0.45,0.45h0a0.45,0.45 0 0 1 -0.45,-0.45v0a0.45,0.45 0 0 1 0.45,-0.45zM1.5,16.05h0a0.45,0.45 0 0 1 0.45,0.45v0a0.45,0.45 0 0 1 -0.45,0.45h0a0.45,0.45 0 0 1 -0.45,-0.45v0a0.45,0.45 0 0 1 0.45,-0.45zM2.5,16.05h0a0.45,0.45 0 0 1 0.45,0.45v0a0.45,0.45 0 0 1 -0.45,0.45h0a0.45,0.45 0 0 1 -0.45,-0.45v0a0.45,0.45 0 0 1 0.45,-0.45zM3.5,16.05h0a0.45,0.45 0 0 1 0.45,0.45v0a0.45,0.45 0 0 1 -0.45,0.45h0a0.45,0.45 0 0 1 -0.45,-0.45v0a0.45,0.45 0 0 1 0.45,-0.45zM5.5,16.05h0a0.45,0.45 0 0 1 0.45,0.45v0a0.45,0.45 0 0 1 -0.45,0.45h0a0.45,0.45 0 0 1 -0.45,-0.45v0a0.45,0.45 0 0 1 0.45,-0.45zM7.5,16.05h0a0.45,0.45 0 0 1 0.45,0.45v0a0.45,0.45 0 0 1 -0.45,0.45h0a0.45,0.45 0 0 1 -0.45,-0.45v0a0.45,0.45 0 0 1 0.45,-0.45zM9.5,16.05h0a0.45,0.45 0 0 1 0.45,0.45v0a0.45,0.45 0 0 1 -0.45,0.45h0a0.45,0.45 0 0 1 -0.45,-0.45v0a0.45,0.45 0 0 1 0.45,-0.45zM11.5,16.05h0a0.45,0.45 0 0 1 0.45,0.45v0a0.45,0.45 0 0 1 -0.45,0.45h0a0.45,0.45 0 0 1 -0.45,-0.45v0a0.45,0.45 0 0 1 0.45,-0.45zM9.5,17.05h0a0.45,0.45 0 0 1 0.45,0.45v0a0.45,0.45 0 0 1 -0.45,0.45h0a0.45,0.45 0 0 1 -0.45,-0.45v0a0.45,0.45 0 0 1 0.45,-0.45zM10.5,17.05h0a0.45,0.45 0 0 1 0.45,0.45v0a0.45,0.45 0 0 1 -0.45,0.45h0a0.45,0.45 0 0 1 -0.45,-0.45v0a0.45,0.45 0 0 1 0.45,-0.45zM11.5,17.05h0a0.45,0.45 0 0 1 0.45,0.45v0a0.45,0.45 0 0 1 -0.45,0.45h0a0.45,0.45 0 0 1 -0.45,-0.45v0a0.45,0.45 0 0 1 0.45,-0.45zM12.5,17.05h0a0.45,0.45 0 0 1 0.45,0.45v0a0.45,0.45 0 0 1 -0.45,0.45h0a0.45,0.45 0 0 1 -0.45,-0.45v0a0.45,0.45 0 0 1 0.45,-0.45zM14.5,17.05h0a0.45,0.45 0 0 1 0.45,0.45v0a0.45,0.45 0 0 1 -0.45,0.45h0a0.45,0.45 0 0 1 -0.45,-0.45v0a0.45,0.45 0 0 1 0.45,-0.45zM17.5,17.05h0a0.45,0.45 0 0 1 0.45,0.45v0a0.45,0.45 0 0 1 -0.45,0.45h0a0.45,0.45 0 0 1 -0.45,-0.45v0a0.45,0.45 0 0 1 0.45,-0.45zM18.5,17.05h0a0.45,0.45 0 0 1 0.45,0.45v0a0.45,0.45 0 0 1 -0.45,0.45h0a0.45,0.45 0 0 1 -0.45,-0.45v0a0.45,0.45 0 0 1 0.45,-0.45zM19.5,17.05h0a0.45,0.45 0 0 1 0.45,0.45v0a0.45,0.45 0 0 1 -0.45,0.45h0a0.45,0.45 0 0 1 -0.45,-0.45v0a0.45,0.45 0 0 1 0.45,-0.45zM22.5,17.05h0a0.45,0.45 0 0 1 0.45,0.45v0a0.45,0.45 0 0 1 -0.45,0.45h0a0.45,0.45 0 0 1 -0.45,-0.45v0a0.45,0.45 0 0 1 0.45,-0.45zM24.5,17.05h0a0.45,0.45 0 0 1 0.45,0.45v0a0.45,0.45 0 0 1 -0.45,0.45h0a0.45,0.45 0 0 1 -0.45,-0.45v0a0.45,0.45 0 0 1 0.45,-0.45zM9.5,18.05h0a0.45,0.45 0 0 1 0.45,0.45v0a0.45,0.45 0 0 1 -0.45,0.45h0a0.45,0.45 0 0 1 -0.45,-0.45v0a0.45,0.45 0 0 1 0.45,-0.45zM10.5,18.05h0a0.45,0.45 0 0 1 0.45,0.45v0a0.45,0.45 0 0 1 -0.45,0.45h0a0.45,0.45 0 0 1 -0.45,-0.45v0a0.45,0.45 0 0 1 0.45,-0.45zM15.5,18.05h0a0.45,0.45 0 0 1 0.45,0.45v0a0.45,0.45 0 0 1 -0.45,0.45h0a0.45,0.45 0 0 1 -0.45,-0.45v0a0.45,0.45 0 0 1 0.45,-0.45zM17.5,18.05h0a0.45,0.45 0 0 1 0.45,0.45v0a0.45,0.45 0 0 1 -0.45,0.45h0a0.45,0.45 0 0 1 -0.45,-0.45v0a0.45,0.45 0 0 1 0.45,-0.45zM19.5,18.05h0a0.45,0.45 0 0 1 0.45,0.45v0a0.45,0.45 0 0 1 -0.45,0.45h0a0.45,0.45 0 0 1 -0.45,-0.45v0a0.45,0.45 0 0 1 0.45,-0.45zM22.5,18.05h0a0.45,0.45 0 0 1 0.45,0.45v0a0.45,0.45 0 0 1 -0.45,0.45h0a0.45,0.45 0 0 1 -0.45,-0.45v0a0.45,0.45 0 0 1 0.45,-0.45zM8.5,19.05h0a0.45,0.45 0 0 1 0.45,0.45v0a0.45,0.45 0 0 1 -0.45,0.45h0a0.45,0.45 0 0 1 -0.45,-0.45v0a0.45,0.45 0 0 1 0.45,-0.45zM12.5,19.05h0a0.45,0.45 0 0 1 0.45,0.45v0a0.45,0.45 0 0 1 -0.45,0.45h0a0.45,0.45 0 0 1 -0.45,-0.45v0a0.45,0.45 0 0 1 0.45,-0.45zM13.5,19.05h0a0.45,0.45 0 0 1 0.45,0.45v0a0.45,0.45 0 0 1 -0.45,0.45h0a0.45,0.45 0 0 1 -0.45,-0.45v0a0.45,0.45 0 0 1 0.45,-0.45zM15.5,19.05h0a0.45,0.45 0 0 1 0.45,0.45v0a0.45,0.45 0 0 1 -0.45,0.45h0a0.45,0.45 0 0 1 -0.45,-0.45v0a0.45,0.45 0 0 1 0.45,-0.45zM17.5,19.05h0a0.45,0.45 0 0 1 0.45,0.45v0a0.45,0.45 0 0 1 -0.45,0.45h0a0.45,0.45 0 0 1 -0.45,-0.45v0a0.45,0.45 0 0 1 0.45,-0.45zM18.5,19.05h0a0.45,0.45 0 0 1 0.45,0.45v0a0.45,0.45 0 0 1 -0.45,0.45h0a0.45,0.45 0 0 1 -0.45,-0.45v0a0.45,0.45 0 0 1 0.45,-0.45zM19.5,19.05h0a0.45,0.45 0 0 1 0.45,0.45v0a0.45,0.45 0 0 1 -0.45,0.45h0a0.45,0.45 0 0 1 -0.45,-0.45v0a0.45,0.45 0 0 1 0.45,-0.45zM21.5,19.05h0a0.45,0.45 0 0 1 0.45,0.45v0a0.45,0.45 0 0 1 -0.45,0.45h0a0.45,0.45 0 0 1 -0.45,-0.45v0a0.45,0.45 0 0 1 0.45,-0.45zM22.5,19.05h0a0.45,0.45 0 0 1 0.45,0.45v0a0.45,0.45 0 0 1 -0.45,0.45h0a0.45,0.45 0 0 1 -0.45,-0.45v0a0.45,0.45 0 0 1 0.45,-0.45zM23.5,19.05h0a0.45,0.45 0 0 1 0.45,0.45v0a0.45,0.45 0 0 1 -0.45,0.45h0a0.45,0.45 0 0 1 -0.45,-0.45v0a0.45,0.45 0 0 1 0.45,-0.45zM9.5,20.05h0a0.45,0.45 0 0 1 0.45,0.45v0a0.45,0.45 0 0 1 -0.45,0.45h0a0.45,0.45 0 0 1 -0.45,-0.45v0a0.45,0.45 0 0 1 0.45,-0.45zM10.5,20.05h0a0.45,0.45 0 0 1 0.45,0.45v0a0.45,0.45 0 0 1 -0.45,0.45h0a0.45,0.45 0 0 1 -0.45,-0.45v0a0.45,0.45 0 0 1 0.45,-0.45zM23.5,20.05h0a0.45,0.45 0 0 1 0.45,0.45v0a0.45,0.45 0 0 1 -0.45,0.45h0a0.45,0.45 0 0 1 -0.45,-0.45v0a0.45,0.45 0 0 1 0.45,-0.45zM24.5,20.05h0a0.45,0.45 0 0 1 0.45,0.45v0a0.45,0.45 0 0 1 -0.45,0.45h0a0.45,0.45 0 0 1 -0.45,-0.45v0a0.45,0.45 0 0 1 0.45,-0.45zM9.5,21.05h0a0.45,0.45 0 0 1 0.45,0.45v0a0.45,0.45 0 0 1 -0.45,0.45h0a0.45,0.45 0 0 1 -0.45,-0.45v0a0.45,0.45 0 0 1 0.45,-0.45zM10.5,21.05h0a0.45,0.45 0 0 1 0.45,0.45v0a0.45,0.45 0 0 1 -0.45,0.45h0a0.45,0.45 0 0 1 -0.45,-0.45v0a0.45,0.45 0 0 1 0.45,-0.45zM11.5,21.05h0a0.45,0.45 0 0 1 0.45,0.45v0a0.45,0.45 0 0 1 -0.45,0.45h0a0.45,0.45 0 0 1 -0.45,-0.45v0a0.45,0.45 0 0 1 0.45,-0.45zM13.5,21.05h0a0.45,0.45 0 0 1 0.45,0.45v0a0.45,0.45 0 0 1 -0.45,0.45h0a0.45,0.45 0 0 1 -0.45,-0.45v0a0.45,0.45 0 0 1 0.45,-0.45zM14.5,21.05h0a0.45,0.45 0 0 1 0.45,0.45v0a0.45,0.45 0 0 1 -0.45,0.45h0a0.45,0.45 0 0 1 -0.45,-0.45v0a0.45,0.45 0 0 1 0.45,-0.45zM16.5,21.05h0a0.45,0.45 0 0 1 0.45,0.45v0a0.45,0.45 0 0 1 -0.45,0.45h0a0.45,0.45 0 0 1 -0.45,-0.45v0a0.45,0.45 0 0 1 0.45,-0.45zM19.5,21.05h0a0.45,0.45 0 0 1 0.45,0.45v0a0.45,0.45 0 0 1 -0.45,0.45h0a0.45,0.45 0 0 1 -0.45,-0.45v0a0.45,0.45 0 0 1 0.45,-0.45zM11.5,22.05h0a0.45,0.45 0 0 1 0.45,0.45v0a0.45,0.45 0 0 1 -0.45,0.45h0a0.45,0.45 0 0 1 -0.45,-0.45v0a0.45,0.45 0 0 1 0.45,-0.45zM12.5,22.05h0a0.45,0.45 0 0 1 0.45,0.45v0a0.45,0.45 0 0 1 -0.45,0.45h0a0.45,0.45 0 0 1 -0.45,-0.45v0a0.45,0.45 0 0 1 0.45,-0.45zM13.5,22.05h0a0.45,0.45 0 0 1 0.45,0.45v0a0.45,0.45 0 0 1 -0.45,0.45h0a0.45,0.45 0 0 1 -0.45,-0.45v0a0.45,0.45 0 0 1 0.45,-0.45zM16.5,22.05h0a0.45,0.45 0 0 1 0.45,0.45v0a0.45,0.45 0 0 1 -0.45,0.45h0a0.45,0.45 0 0 1 -0.45,-0.45v0a0.45,0.45 0 0 1 0.45,-0.45zM18.5,22.05h0a0.45,0.45 0 0 1 0.45,0.45v0a0.45,0.45 0 0 1 -0.45,0.45h0a0.45,0.45 0 0 1 -0.45,-0.45v0a0.45,0.45 0 0 1 0.45,-0.45zM19.5,22.05h0a0.45,0.45 0 0 1 0.45,0.45v0a0.45,0.45 0 0 1 -0.45,0.45h0a0.45,0.45 0 0 1 -0.45,-0.45v0a0.45,0.45 0 0 1 0.45,-0.45zM20.5,22.05h0a0.45,0.45 0 0 1 0.45,0.45v0a0.45,0.45 0 0 1 -0.45,0.45h0a0.45,0.45 0 0 1 -0.45,-0.45v0a0.45,0.45 0 0 1 0.45,-0.45zM21.5,22.05h0a0.45,0.45 0 0 1 0.45,0.45v0a0.45,0.45 0 0 1 -0.45,0.45h0a0.45,0.45 0 0 1 -0.45,-0.45v0a0.45,0.45 0 0 1 0.45,-0.45zM22.5,22.05h0a0.45,0.45 0 0 1 0.45,0.45v0a0.45,0.45 0 0 1 -0.45,0.45h0a0.45,0.45 0 0 1 -0.45,-0.45v0a0.45,0.45 0 0 1 0.45,-0.45zM23.5,22.05h0a0.45,0.45 0 0 1 0.45,0.45v0a0.45,0.45 0 0 1 -0.45,0.45h0a0.45,0.45 0 0 1 -0.45,-0.45v0a0.45,0.45 0 0 1 0.45,-0.45zM10.5,23.05h0a0.45,0.45 0 0 1 0.45,0.45v0a0.45,0.45 0 0 1 -0.45,0.45h0a0.45,0.45 0 0 1 -0.45,-0.45v0a0.45,0.45 0 0 1 0.45,-0.45zM11.5,23.05h0a0.45,0.45 0 0 1 0.45,0.45v0a0.45,0.45 0 0 1 -0.45,0.45h0a0.45,0.45 0 0 1 -0.45,-0.45v0a0.45,0.45 0 0 1 0.45,-0.45zM12.5,23.05h0a0.45,0.45 0 0 1 0.45,0.45v0a0.45,0.45 0 0 1 -0.45,0.45h0a0.45,0.45 0 0 1 -0.45,-0.45v0a0.45,0.45 0 0 1 0.45,-0.45zM13.5,23.05h0a0.45,0.45 0 0 1 0.45,0.45v0a0.45,0.45 0 0 1 -0.45,0.45h0a0.45,0.45 0 0 1 -0.45,-0.45v0a0.45,0.45 0 0 1 0.45,-0.45zM14.5,23.05h0a0.45,0.45 0 0 1 0.45,0.45v0a0.45,0.45 0 0 1 -0.45,0.45h0a0.45,0.45 0 0 1 -0.45,-0.45v0a0.45,0.45 0 0 1 0.45,-0.45zM21.5,23.05h0a0.45,0.45 0 0 1 0.45,0.45v0a0.45,0.45 0 0 1 -0.45,0.45h0a0.45,0.45 0 0 1 -0.45,-0.45v0a0.45,0.45 0 0 1 0.45,-0.45zM22.5,23.05h0a0.45,0.45 0 0 1 0.45,0.45v0a0.45,0.45 0 0 1 -0.45,0.45h0a0.45,0.45 0 0 1 -0.45,-0.45v0a0.45,0.45 0 0 1 0.45,-0.45zM23.5,23.05h0a0.45,0.45 0 0 1 0.45,0.45v0a0.45,0.45 0 0 1 -0.45,0.45h0a0.45,0.45 0 0 1 -0.45,-0.45v0a0.45,0.45 0 0 1 0.45,-0.45zM11.5,24.05h0a0.45,0.45 0 0 1 0.45,0.45v0a0.45,0.45 0 0 1 -0.45,0.45h0a0.45,0.45 0 0 1 -0.45,-0.45v0a0.45,0.45 0 0 1 0.45,-0.45zM16.5,24.05h0a0.45,0.45 0 0 1 0.45,0.45v0a0.45,0.45 0 0 1 -0.45,0.45h0a0.45,0.45 0 0 1 -0.45,-0.45v0a0.45,0.45 0 0 1 0.45,-0.45zM17.5,24.05h0a0.45,0.45 0 0 1 0.45,0.45v0a0.45,0.45 0 0 1 -0.45,0.45h0a0.45,0.45 0 0 1 -0.45,-0.45v0a0.45,0.45 0 0 1 0.45,-0.45zM19.5,24.05h0a0.45,0.45 0 0 1 0.45,0.45v0a0.45,0.45 0 0 1 -0.45,0.45h0a0.45,0.45 0 0 1 -0.45,-0.45v0a0.45,0.45 0 0 1 0.45,-0.45zM20.5,24.05h0a0.45,0.45 0 0 1 0.45,0.45v0a0.45,0.45 0 0 1 -0.45,0.45h0a0.45,0.45 0 0 1 -0.45,-0.45v0a0.45,0.45 0 0 1 0.45,-0.45zM21.5,24.05h0a0.45,0.45 0 0 1 0.45,0.45v0a0.45,0.45 0 0 1 -0.45,0.45h0a0.45,0.45 0 0 1 -0.45,-0.45v0a0.45,0.45 0 0 1 0.45,-0.45z"></path><path id="qr squares" d="M1.75,0h3.5a1.75,1.75 0 0 1 1.75,1.75v3.5a1.75,1.75 0 0 1 -1.75,1.75h-3.5a1.75,1.75 0 0 1 -1.75,-1.75v-3.5a1.75,1.75 0 0 1 1.75,-1.75zM2.25,1h2.5a1.25,1.25 0 0 1 1.25,1.25v2.5a1.25,1.25 0 0 1 -1.25,1.25h-2.5a1.25,1.25 0 0 1 -1.25,-1.25v-2.5a1.25,1.25 0 0 1 1.25,-1.25zM2.75,2h1.5a0.75,0.75 0 0 1 0.75,0.75v1.5a0.75,0.75 0 0 1 -0.75,0.75h-1.5a0.75,0.75 0 0 1 -0.75,-0.75v-1.5a0.75,0.75 0 0 1 0.75,-0.75z M19.75,0h3.5a1.75,1.75 0 0 1 1.75,1.75v3.5a1.75,1.75 0 0 1 -1.75,1.75h-3.5a1.75,1.75 0 0 1 -1.75,-1.75v-3.5a1.75,1.75 0 0 1 1.75,-1.75zM20.25,1h2.5a1.25,1.25 0 0 1 1.25,1.25v2.5a1.25,1.25 0 0 1 -1.25,1.25h-2.5a1.25,1.25 0 0 1 -1.25,-1.25v-2.5a1.25,1.25 0 0 1 1.25,-1.25zM20.75,2h1.5a0.75,0.75 0 0 1 0.75,0.75v1.5a0.75,0.75 0 0 1 -0.75,0.75h-1.5a0.75,0.75 0 0 1 -0.75,-0.75v-1.5a0.75,0.75 0 0 1 0.75,-0.75z M1.75,18h3.5a1.75,1.75 0 0 1 1.75,1.75v3.5a1.75,1.75 0 0 1 -1.75,1.75h-3.5a1.75,1.75 0 0 1 -1.75,-1.75v-3.5a1.75,1.75 0 0 1 1.75,-1.75zM2.25,19h2.5a1.25,1.25 0 0 1 1.25,1.25v2.5a1.25,1.25 0 0 1 -1.25,1.25h-2.5a1.25,1.25 0 0 1 -1.25,-1.25v-2.5a1.25,1.25 0 0 1 1.25,-1.25zM2.75,20h1.5a0.75,0.75 0 0 1 0.75,0.75v1.5a0.75,0.75 0 0 1 -0.75,0.75h-1.5a0.75,0.75 0 0 1 -0.75,-0.75v-1.5a0.75,0.75 0 0 1 0.75,-0.75z" fill-rule="evenodd" fill-opacity="1" fill="rgb(0, 0, 0)"></path></svg>