<svg width="100%" height="100%" viewBox="-1 -1 31 31" xmlns="http://www.w3.org/2000/svg" xmlns:xlink="http://www.w3.org/1999/xlink" shape-rendering="geometricPrecision" id="qr code"><rect id="qr background" fill-opacity="1" fill="rgb(255, 255, 255)" x="-1" y="-1" width="31" height="31" ry="1.3499999999999999"></rect><path fill-opacity="1" fill="rgb(12, 163, 244)" id="qr dark pixels" fill-rule="evenodd" d="M 8 0.4a 0.4,0.4 0 0 1 0.4,-0.4L 8.6 0a 0.4,0.4 0 0 1 0.4,0.4L 9 0.6a 0.4,0.4 0 0 1 -0.4,0.4L 8.4 1a 0.4,0.4 0 0 1 -0.4,-0.4z M 10 0.4a 0.4,0.4 0 0 1 0.4,-0.4L 10.6 0a 0.4,0.4 0 0 1 0.4,0.4L 11 0.6a 0.4,0.4 0 0 1 -0.4,0.4L 10.4 1a 0.4,0.4 0 0 1 -0.4,-0.4z M 13 0.4a 0.4,0.4 0 0 1 0.4,-0.4L 13.6 0a 0.4,0.4 0 0 1 0.4,0.4L 14 0.6a 0.4,0.4 0 0 1 -0.4,0.4L 13.4 1a 0.4,0.4 0 0 1 -0.4,-0.4z M 19 0.4a 0.4,0.4 0 0 1 0.4,-0.4L 20.6 0a 0.4,0.4 0 0 1 0.4,0.4L 21 2.6a 0.4,0.4 0 0 1 -0.4,0.4L 20.4 3a 0.4,0.4 0 0 1 -0.4,-0.4L 20 2.4a 0.4,0.4 0 0 0 -0.4,-0.4L 19.4 2a 0.4,0.4 0 0 0 -0.4,0.4L 19 2.6a 0.4,0.4 0 0 1 -0.4,0.4L 18.4 3a 0.4,0.4 0 0 1 -0.4,-0.4L 18 1.4a 0.4,0.4 0 0 1 0.4,-0.4L 18.6 1a 0.4,0.4 0 0 0 0.4,-0.4z M 9 1.4a 0.4,0.4 0 0 1 0.4,-0.4L 9.6 1a 0.4,0.4 0 0 1 0.4,0.4L 10 1.6a 0.4,0.4 0 0 0 0.4,0.4L 10.6 2a 0.4,0.4 0 0 1 0.4,0.4L 11 2.6a 0.4,0.4 0 0 1 -0.4,0.4L 10.4 3a 0.4,0.4 0 0 0 -0.4,0.4L 10 3.6a 0.4,0.4 0 0 1 -0.4,0.4L 9.4 4a 0.4,0.4 0 0 1 -0.4,-0.4z M 14 1.4a 0.4,0.4 0 0 1 0.4,-0.4L 14.6 1a 0.4,0.4 0 0 1 0.4,0.4L 15 1.6a 0.4,0.4 0 0 0 0.4,0.4L 15.6 2a 0.4,0.4 0 0 1 0.4,0.4L 16 2.6a 0.4,0.4 0 0 0 0.4,0.4L 16.6 3a 0.4,0.4 0 0 1 0.4,0.4L 17 3.6a 0.4,0.4 0 0 1 -0.4,0.4L 16.4 4a 0.4,0.4 0 0 0 -0.4,0.4L 16 4.6a 0.4,0.4 0 0 0 0.4,0.4L 17.6 5a 0.4,0.4 0 0 1 0.4,0.4L 18 7.6a 0.4,0.4 0 0 1 -0.4,0.4L 16.4 8a 0.4,0.4 0 0 1 -0.4,-0.4L 16 7.4a 0.4,0.4 0 0 1 0.4,-0.4L 16.6 7a 0.4,0.4 0 0 0 0.4,-0.4L 17 6.4a 0.4,0.4 0 0 0 -0.4,-0.4L 16.4 6a 0.4,0.4 0 0 0 -0.4,0.4L 16 6.6a 0.4,0.4 0 0 1 -0.4,0.4L 15.4 7a 0.4,0.4 0 0 1 -0.4,-0.4L 15 6.4a 0.4,0.4 0 0 0 -0.4,-0.4L 14.4 6a 0.4,0.4 0 0 1 -0.4,-0.4L 14 5.4a 0.4,0.4 0 0 0 -0.4,-0.4L 13.4 5a 0.4,0.4 0 0 1 -0.4,-0.4L 13 4.4a 0.4,0.4 0 0 1 0.4,-0.4L 14.6 4a 0.4,0.4 0 0 0 0.4,-0.4L 15 3.4a 0.4,0.4 0 0 0 -0.4,-0.4L 14.4 3a 0.4,0.4 0 0 1 -0.4,-0.4z M 19 3.4a 0.4,0.4 0 0 1 0.4,-0.4L 19.6 3a 0.4,0.4 0 0 1 0.4,0.4L 20 3.6a 0.4,0.4 0 0 0 0.4,0.4L 20.6 4a 0.4,0.4 0 0 1 0.4,0.4L 21 4.6a 0.4,0.4 0 0 1 -0.4,0.4L 20.4 5a 0.4,0.4 0 0 0 -0.4,0.4L 20 7.6a 0.4,0.4 0 0 1 -0.4,0.4L 19.4 8a 0.4,0.4 0 0 1 -0.4,-0.4L 19 5.4a 0.4,0.4 0 0 0 -0.4,-0.4L 18.4 5a 0.4,0.4 0 0 1 -0.4,-0.4L 18 4.4a 0.4,0.4 0 0 1 0.4,-0.4L 18.6 4a 0.4,0.4 0 0 0 0.4,-0.4z M 10 4.4a 0.4,0.4 0 0 1 0.4,-0.4L 10.6 4a 0.4,0.4 0 0 1 0.4,0.4L 11 4.6a 0.4,0.4 0 0 0 0.4,0.4L 12.6 5a 0.4,0.4 0 0 1 0.4,0.4L 13 5.6a 0.4,0.4 0 0 1 -0.4,0.4L 12.4 6a 0.4,0.4 0 0 0 -0.4,0.4L 12 7.6a 0.4,0.4 0 0 1 -0.4,0.4L 11.4 8a 0.4,0.4 0 0 1 -0.4,-0.4L 11 6.4a 0.4,0.4 0 0 0 -0.4,-0.4L 10.4 6a 0.4,0.4 0 0 1 -0.4,-0.4z M 9 6.4a 0.4,0.4 0 0 1 0.4,-0.4L 9.6 6a 0.4,0.4 0 0 1 0.4,0.4L 10 6.6a 0.4,0.4 0 0 1 -0.4,0.4L 9.4 7a 0.4,0.4 0 0 1 -0.4,-0.4z M 13 6.4a 0.4,0.4 0 0 1 0.4,-0.4L 13.6 6a 0.4,0.4 0 0 1 0.4,0.4L 14 7.6a 0.4,0.4 0 0 0 0.4,0.4L 14.6 8a 0.4,0.4 0 0 1 0.4,0.4L 15 8.6a 0.4,0.4 0 0 1 -0.4,0.4L 12.4 9a 0.4,0.4 0 0 1 -0.4,-0.4L 12 8.4a 0.4,0.4 0 0 1 0.4,-0.4L 12.6 8a 0.4,0.4 0 0 0 0.4,-0.4z M 8 7.4a 0.4,0.4 0 0 1 0.4,-0.4L 8.6 7a 0.4,0.4 0 0 1 0.4,0.4L 9 7.6a 0.4,0.4 0 0 1 -0.4,0.4L 8.4 8a 0.4,0.4 0 0 1 -0.4,-0.4z M 0 8.4a 0.4,0.4 0 0 1 0.4,-0.4L 1.6 8a 0.4,0.4 0 0 1 0.4,0.4L 2 8.6a 0.4,0.4 0 0 1 -0.4,0.4L 1.4 9a 0.4,0.4 0 0 0 -0.4,0.4L 1 9.6a 0.4,0.4 0 0 1 -0.4,0.4L 0.4 10a 0.4,0.4 0 0 1 -0.4,-0.4z M 3 8.4a 0.4,0.4 0 0 1 0.4,-0.4L 4.6 8a 0.4,0.4 0 0 1 0.4,0.4L 5 8.6a 0.4,0.4 0 0 0 0.4,0.4L 8.6 9a 0.4,0.4 0 0 1 0.4,0.4L 9 11.6a 0.4,0.4 0 0 1 -0.4,0.4L 6.4 12a 0.4,0.4 0 0 1 -0.4,-0.4L 6 11.4a 0.4,0.4 0 0 1 0.4,-0.4L 7.6 11a 0.4,0.4 0 0 0 0.4,-0.4L 8 10.4a 0.4,0.4 0 0 0 -0.4,-0.4L 6.4 10a 0.4,0.4 0 0 0 -0.4,0.4L 6 10.6a 0.4,0.4 0 0 1 -0.4,0.4L 5.4 11a 0.4,0.4 0 0 1 -0.4,-0.4L 5 10.4a 0.4,0.4 0 0 0 -0.4,-0.4L 4.4 10a 0.4,0.4 0 0 1 -0.4,-0.4L 4 9.4a 0.4,0.4 0 0 0 -0.4,-0.4L 3.4 9a 0.4,0.4 0 0 1 -0.4,-0.4z M 9 8.4a 0.4,0.4 0 0 1 0.4,-0.4L 9.6 8a 0.4,0.4 0 0 1 0.4,0.4L 10 8.6a 0.4,0.4 0 0 1 -0.4,0.4L 9.4 9a 0.4,0.4 0 0 1 -0.4,-0.4z M 22 8.4a 0.4,0.4 0 0 1 0.4,-0.4L 22.6 8a 0.4,0.4 0 0 1 0.4,0.4L 23 8.6a 0.4,0.4 0 0 1 -0.4,0.4L 22.4 9a 0.4,0.4 0 0 1 -0.4,-0.4z M 28 8.4a 0.4,0.4 0 0 1 0.4,-0.4L 28.6 8a 0.4,0.4 0 0 1 0.4,0.4L 29 8.6a 0.4,0.4 0 0 1 -0.4,0.4L 28.4 9a 0.4,0.4 0 0 1 -0.4,-0.4z M 2 9.4a 0.4,0.4 0 0 1 0.4,-0.4L 2.6 9a 0.4,0.4 0 0 1 0.4,0.4L 3 9.6a 0.4,0.4 0 0 1 -0.4,0.4L 2.4 10a 0.4,0.4 0 0 1 -0.4,-0.4z M 21 9.4a 0.4,0.4 0 0 1 0.4,-0.4L 21.6 9a 0.4,0.4 0 0 1 0.4,0.4L 22 9.6a 0.4,0.4 0 0 1 -0.4,0.4L 21.4 10a 0.4,0.4 0 0 1 -0.4,-0.4z M 24 9.4a 0.4,0.4 0 0 1 0.4,-0.4L 27.6 9a 0.4,0.4 0 0 1 0.4,0.4L 28 10.6a 0.4,0.4 0 0 0 0.4,0.4L 28.6 11a 0.4,0.4 0 0 1 0.4,0.4L 29 11.6a 0.4,0.4 0 0 1 -0.4,0.4L 28.4 12a 0.4,0.4 0 0 0 -0.4,0.4L 28 14.6a 0.4,0.4 0 0 0 0.4,0.4L 28.6 15a 0.4,0.4 0 0 1 0.4,0.4L 29 15.6a 0.4,0.4 0 0 1 -0.4,0.4L 27.4 16a 0.4,0.4 0 0 0 -0.4,0.4L 27 17.6a 0.4,0.4 0 0 1 -0.4,0.4L 24.4 18a 0.4,0.4 0 0 1 -0.4,-0.4L 24 16.4a 0.4,0.4 0 0 0 -0.4,-0.4L 23.4 16a 0.4,0.4 0 0 1 -0.4,-0.4L 23 15.4a 0.4,0.4 0 0 1 0.4,-0.4L 24.6 15a 0.4,0.4 0 0 1 0.4,0.4L 25 16.6a 0.4,0.4 0 0 0 0.4,0.4L 25.6 17a 0.4,0.4 0 0 0 0.4,-0.4L 26 15.4a 0.4,0.4 0 0 1 0.4,-0.4L 26.6 15a 0.4,0.4 0 0 0 0.4,-0.4L 27 13.4a 0.4,0.4 0 0 0 -0.4,-0.4L 26.4 13a 0.4,0.4 0 0 1 -0.4,-0.4L 26 12.4a 0.4,0.4 0 0 0 -0.4,-0.4L 25.4 12a 0.4,0.4 0 0 1 -0.4,-0.4L 25 10.4a 0.4,0.4 0 0 0 -0.4,-0.4L 24.4 10a 0.4,0.4 0 0 1 -0.4,-0.4zM 26 10.4a 0.4,0.4 0 0 1 0.4,-0.4L 26.6 10a 0.4,0.4 0 0 1 0.4,0.4L 27 10.6a 0.4,0.4 0 0 1 -0.4,0.4L 26.4 11a 0.4,0.4 0 0 1 -0.4,-0.4z M 1 10.4a 0.4,0.4 0 0 1 0.4,-0.4L 1.6 10a 0.4,0.4 0 0 1 0.4,0.4L 2 10.6a 0.4,0.4 0 0 1 -0.4,0.4L 1.4 11a 0.4,0.4 0 0 1 -0.4,-0.4z M 3 10.4a 0.4,0.4 0 0 1 0.4,-0.4L 3.6 10a 0.4,0.4 0 0 1 0.4,0.4L 4 10.6a 0.4,0.4 0 0 1 -0.4,0.4L 3.4 11a 0.4,0.4 0 0 1 -0.4,-0.4z M 20 10.4a 0.4,0.4 0 0 1 0.4,-0.4L 20.6 10a 0.4,0.4 0 0 1 0.4,0.4L 21 10.6a 0.4,0.4 0 0 1 -0.4,0.4L 20.4 11a 0.4,0.4 0 0 1 -0.4,-0.4z M 22 10.4a 0.4,0.4 0 0 1 0.4,-0.4L 23.6 10a 0.4,0.4 0 0 1 0.4,0.4L 24 10.6a 0.4,0.4 0 0 1 -0.4,0.4L 23.4 11a 0.4,0.4 0 0 0 -0.4,0.4L 23 11.6a 0.4,0.4 0 0 1 -0.4,0.4L 22.4 12a 0.4,0.4 0 0 1 -0.4,-0.4z M 2 11.4a 0.4,0.4 0 0 1 0.4,-0.4L 2.6 11a 0.4,0.4 0 0 1 0.4,0.4L 3 11.6a 0.4,0.4 0 0 1 -0.4,0.4L 2.4 12a 0.4,0.4 0 0 1 -0.4,-0.4z M 4 11.4a 0.4,0.4 0 0 1 0.4,-0.4L 4.6 11a 0.4,0.4 0 0 1 0.4,0.4L 5 11.6a 0.4,0.4 0 0 0 0.4,0.4L 5.6 12a 0.4,0.4 0 0 1 0.4,0.4L 6 12.6a 0.4,0.4 0 0 1 -0.4,0.4L 4.4 13a 0.4,0.4 0 0 0 -0.4,0.4L 4 13.6a 0.4,0.4 0 0 1 -0.4,0.4L 3.4 14a 0.4,0.4 0 0 1 -0.4,-0.4L 3 12.4a 0.4,0.4 0 0 1 0.4,-0.4L 3.6 12a 0.4,0.4 0 0 0 0.4,-0.4z M 0 12.4a 0.4,0.4 0 0 1 0.4,-0.4L 0.6 12a 0.4,0.4 0 0 1 0.4,0.4L 1 12.6a 0.4,0.4 0 0 1 -0.4,0.4L 0.4 13a 0.4,0.4 0 0 1 -0.4,-0.4z M 20 12.4a 0.4,0.4 0 0 1 0.4,-0.4L 21.6 12a 0.4,0.4 0 0 1 0.4,0.4L 22 12.6a 0.4,0.4 0 0 1 -0.4,0.4L 20.4 13a 0.4,0.4 0 0 1 -0.4,-0.4z M 24 12.4a 0.4,0.4 0 0 1 0.4,-0.4L 24.6 12a 0.4,0.4 0 0 1 0.4,0.4L 25 12.6a 0.4,0.4 0 0 0 0.4,0.4L 25.6 13a 0.4,0.4 0 0 1 0.4,0.4L 26 13.6a 0.4,0.4 0 0 1 -0.4,0.4L 24.4 14a 0.4,0.4 0 0 1 -0.4,-0.4z M 6 13.4a 0.4,0.4 0 0 1 0.4,-0.4L 8.6 13a 0.4,0.4 0 0 1 0.4,0.4L 9 13.6a 0.4,0.4 0 0 1 -0.4,0.4L 6.4 14a 0.4,0.4 0 0 1 -0.4,-0.4z M 4 14.4a 0.4,0.4 0 0 1 0.4,-0.4L 5.6 14a 0.4,0.4 0 0 1 0.4,0.4L 6 14.6a 0.4,0.4 0 0 0 0.4,0.4L 6.6 15a 0.4,0.4 0 0 1 0.4,0.4L 7 15.6a 0.4,0.4 0 0 1 -0.4,0.4L 6.4 16a 0.4,0.4 0 0 0 -0.4,0.4L 6 16.6a 0.4,0.4 0 0 1 -0.4,0.4L 5.4 17a 0.4,0.4 0 0 1 -0.4,-0.4L 5 16.4a 0.4,0.4 0 0 0 -0.4,-0.4L 4.4 16a 0.4,0.4 0 0 1 -0.4,-0.4z M 21 14.4a 0.4,0.4 0 0 1 0.4,-0.4L 22.6 14a 0.4,0.4 0 0 1 0.4,0.4L 23 14.6a 0.4,0.4 0 0 1 -0.4,0.4L 21.4 15a 0.4,0.4 0 0 1 -0.4,-0.4z M 0 15.4a 0.4,0.4 0 0 1 0.4,-0.4L 0.6 15a 0.4,0.4 0 0 1 0.4,0.4L 1 15.6a 0.4,0.4 0 0 0 0.4,0.4L 1.6 16a 0.4,0.4 0 0 1 0.4,0.4L 2 16.6a 0.4,0.4 0 0 0 0.4,0.4L 4.6 17a 0.4,0.4 0 0 1 0.4,0.4L 5 17.6a 0.4,0.4 0 0 1 -0.4,0.4L 3.4 18a 0.4,0.4 0 0 0 -0.4,0.4L 3 18.6a 0.4,0.4 0 0 1 -0.4,0.4L 2.4 19a 0.4,0.4 0 0 1 -0.4,-0.4L 2 18.4a 0.4,0.4 0 0 0 -0.4,-0.4L 0.4 18a 0.4,0.4 0 0 1 -0.4,-0.4z M 20 15.4a 0.4,0.4 0 0 1 0.4,-0.4L 20.6 15a 0.4,0.4 0 0 1 0.4,0.4L 21 15.6a 0.4,0.4 0 0 1 -0.4,0.4L 20.4 16a 0.4,0.4 0 0 1 -0.4,-0.4z M 7 16.4a 0.4,0.4 0 0 1 0.4,-0.4L 7.6 16a 0.4,0.4 0 0 1 0.4,0.4L 8 17.6a 0.4,0.4 0 0 0 0.4,0.4L 8.6 18a 0.4,0.4 0 0 1 0.4,0.4L 9 18.6a 0.4,0.4 0 0 1 -0.4,0.4L 7.4 19a 0.4,0.4 0 0 1 -0.4,-0.4L 7 18.4a 0.4,0.4 0 0 0 -0.4,-0.4L 6.4 18a 0.4,0.4 0 0 1 -0.4,-0.4L 6 17.4a 0.4,0.4 0 0 1 0.4,-0.4L 6.6 17a 0.4,0.4 0 0 0 0.4,-0.4z M 21 17.4a 0.4,0.4 0 0 1 0.4,-0.4L 21.6 17a 0.4,0.4 0 0 1 0.4,0.4L 22 17.6a 0.4,0.4 0 0 1 -0.4,0.4L 21.4 18a 0.4,0.4 0 0 1 -0.4,-0.4z M 20 18.4a 0.4,0.4 0 0 1 0.4,-0.4L 20.6 18a 0.4,0.4 0 0 1 0.4,0.4L 21 19.6a 0.4,0.4 0 0 1 -0.4,0.4L 20.4 20a 0.4,0.4 0 0 1 -0.4,-0.4z M 23 18.4a 0.4,0.4 0 0 1 0.4,-0.4L 23.6 18a 0.4,0.4 0 0 1 0.4,0.4L 24 18.6a 0.4,0.4 0 0 1 -0.4,0.4L 23.4 19a 0.4,0.4 0 0 1 -0.4,-0.4z M 27 18.4a 0.4,0.4 0 0 1 0.4,-0.4L 27.6 18a 0.4,0.4 0 0 1 0.4,0.4L 28 18.6a 0.4,0.4 0 0 0 0.4,0.4L 28.6 19a 0.4,0.4 0 0 1 0.4,0.4L 29 20.6a 0.4,0.4 0 0 1 -0.4,0.4L 28.4 21a 0.4,0.4 0 0 1 -0.4,-0.4L 28 20.4a 0.4,0.4 0 0 0 -0.4,-0.4L 27.4 20a 0.4,0.4 0 0 0 -0.4,0.4L 27 20.6a 0.4,0.4 0 0 1 -0.4,0.4L 26.4 21a 0.4,0.4 0 0 1 -0.4,-0.4L 26 19.4a 0.4,0.4 0 0 1 0.4,-0.4L 26.6 19a 0.4,0.4 0 0 0 0.4,-0.4z M 0 19.4a 0.4,0.4 0 0 1 0.4,-0.4L 1.6 19a 0.4,0.4 0 0 1 0.4,0.4L 2 19.6a 0.4,0.4 0 0 1 -0.4,0.4L 0.4 20a 0.4,0.4 0 0 1 -0.4,-0.4z M 3 19.4a 0.4,0.4 0 0 1 0.4,-0.4L 3.6 19a 0.4,0.4 0 0 1 0.4,0.4L 4 19.6a 0.4,0.4 0 0 1 -0.4,0.4L 3.4 20a 0.4,0.4 0 0 1 -0.4,-0.4z M 5 19.4a 0.4,0.4 0 0 1 0.4,-0.4L 6.6 19a 0.4,0.4 0 0 1 0.4,0.4L 7 19.6a 0.4,0.4 0 0 1 -0.4,0.4L 5.4 20a 0.4,0.4 0 0 1 -0.4,-0.4z M 24 19.4a 0.4,0.4 0 0 1 0.4,-0.4L 24.6 19a 0.4,0.4 0 0 1 0.4,0.4L 25 19.6a 0.4,0.4 0 0 1 -0.4,0.4L 24.4 20a 0.4,0.4 0 0 1 -0.4,-0.4z M 7 20.4a 0.4,0.4 0 0 1 0.4,-0.4L 7.6 20a 0.4,0.4 0 0 1 0.4,0.4L 8 20.6a 0.4,0.4 0 0 1 -0.4,0.4L 7.4 21a 0.4,0.4 0 0 1 -0.4,-0.4z M 9 20.4a 0.4,0.4 0 0 1 0.4,-0.4L 9.6 20a 0.4,0.4 0 0 1 0.4,0.4L 10 20.6a 0.4,0.4 0 0 1 -0.4,0.4L 9.4 21a 0.4,0.4 0 0 1 -0.4,-0.4z M 12 20.4a 0.4,0.4 0 0 1 0.4,-0.4L 12.6 20a 0.4,0.4 0 0 1 0.4,0.4L 13 20.6a 0.4,0.4 0 0 0 0.4,0.4L 13.6 21a 0.4,0.4 0 0 0 0.4,-0.4L 14 20.4a 0.4,0.4 0 0 1 0.4,-0.4L 15.6 20a 0.4,0.4 0 0 1 0.4,0.4L 16 20.6a 0.4,0.4 0 0 1 -0.4,0.4L 15.4 21a 0.4,0.4 0 0 0 -0.4,0.4L 15 21.6a 0.4,0.4 0 0 1 -0.4,0.4L 14.4 22a 0.4,0.4 0 0 0 -0.4,0.4L 14 22.6a 0.4,0.4 0 0 1 -0.4,0.4L 13.4 23a 0.4,0.4 0 0 0 -0.4,0.4L 13 23.6a 0.4,0.4 0 0 1 -0.4,0.4L 12.4 24a 0.4,0.4 0 0 1 -0.4,-0.4z M 18 20.4a 0.4,0.4 0 0 1 0.4,-0.4L 18.6 20a 0.4,0.4 0 0 1 0.4,0.4L 19 20.6a 0.4,0.4 0 0 0 0.4,0.4L 19.6 21a 0.4,0.4 0 0 1 0.4,0.4L 20 22.6a 0.4,0.4 0 0 1 -0.4,0.4L 18.4 23a 0.4,0.4 0 0 1 -0.4,-0.4z M 16 21.4a 0.4,0.4 0 0 1 0.4,-0.4L 16.6 21a 0.4,0.4 0 0 1 0.4,0.4L 17 21.6a 0.4,0.4 0 0 1 -0.4,0.4L 16.4 22a 0.4,0.4 0 0 1 -0.4,-0.4z M 21 21.4a 0.4,0.4 0 0 1 0.4,-0.4L 23.6 21a 0.4,0.4 0 0 1 0.4,0.4L 24 23.6a 0.4,0.4 0 0 1 -0.4,0.4L 21.4 24a 0.4,0.4 0 0 1 -0.4,-0.4zM 22 22.4a 0.4,0.4 0 0 1 0.4,-0.4L 22.6 22a 0.4,0.4 0 0 1 0.4,0.4L 23 22.6a 0.4,0.4 0 0 1 -0.4,0.4L 22.4 23a 0.4,0.4 0 0 1 -0.4,-0.4z M 25 21.4a 0.4,0.4 0 0 1 0.4,-0.4L 25.6 21a 0.4,0.4 0 0 1 0.4,0.4L 26 22.6a 0.4,0.4 0 0 1 -0.4,0.4L 25.4 23a 0.4,0.4 0 0 1 -0.4,-0.4z M 27 21.4a 0.4,0.4 0 0 1 0.4,-0.4L 27.6 21a 0.4,0.4 0 0 1 0.4,0.4L 28 21.6a 0.4,0.4 0 0 1 -0.4,0.4L 27.4 22a 0.4,0.4 0 0 1 -0.4,-0.4z M 10 22.4a 0.4,0.4 0 0 1 0.4,-0.4L 10.6 22a 0.4,0.4 0 0 1 0.4,0.4L 11 23.6a 0.4,0.4 0 0 0 0.4,0.4L 11.6 24a 0.4,0.4 0 0 1 0.4,0.4L 12 24.6a 0.4,0.4 0 0 1 -0.4,0.4L 11.4 25a 0.4,0.4 0 0 0 -0.4,0.4L 11 25.6a 0.4,0.4 0 0 1 -0.4,0.4L 10.4 26a 0.4,0.4 0 0 1 -0.4,-0.4L 10 25.4a 0.4,0.4 0 0 0 -0.4,-0.4L 9.4 25a 0.4,0.4 0 0 0 -0.4,0.4L 9 25.6a 0.4,0.4 0 0 1 -0.4,0.4L 8.4 26a 0.4,0.4 0 0 1 -0.4,-0.4L 8 24.4a 0.4,0.4 0 0 1 0.4,-0.4L 8.6 24a 0.4,0.4 0 0 0 0.4,-0.4L 9 23.4a 0.4,0.4 0 0 1 0.4,-0.4L 9.6 23a 0.4,0.4 0 0 0 0.4,-0.4z M 15 23.4a 0.4,0.4 0 0 1 0.4,-0.4L 16.6 23a 0.4,0.4 0 0 1 0.4,0.4L 17 23.6a 0.4,0.4 0 0 0 0.4,0.4L 18.6 24a 0.4,0.4 0 0 1 0.4,0.4L 19 24.6a 0.4,0.4 0 0 0 0.4,0.4L 23.6 25a 0.4,0.4 0 0 1 0.4,0.4L 24 25.6a 0.4,0.4 0 0 1 -0.4,0.4L 23.4 26a 0.4,0.4 0 0 0 -0.4,0.4L 23 27.6a 0.4,0.4 0 0 1 -0.4,0.4L 21.4 28a 0.4,0.4 0 0 1 -0.4,-0.4L 21 27.4a 0.4,0.4 0 0 1 0.4,-0.4L 21.6 27a 0.4,0.4 0 0 0 0.4,-0.4L 22 26.4a 0.4,0.4 0 0 0 -0.4,-0.4L 17.4 26a 0.4,0.4 0 0 1 -0.4,-0.4L 17 25.4a 0.4,0.4 0 0 0 -0.4,-0.4L 16.4 25a 0.4,0.4 0 0 1 -0.4,-0.4L 16 24.4a 0.4,0.4 0 0 0 -0.4,-0.4L 15.4 24a 0.4,0.4 0 0 1 -0.4,-0.4z M 26 23.4a 0.4,0.4 0 0 1 0.4,-0.4L 28.6 23a 0.4,0.4 0 0 1 0.4,0.4L 29 23.6a 0.4,0.4 0 0 1 -0.4,0.4L 28.4 24a 0.4,0.4 0 0 0 -0.4,0.4L 28 24.6a 0.4,0.4 0 0 1 -0.4,0.4L 27.4 25a 0.4,0.4 0 0 0 -0.4,0.4L 27 25.6a 0.4,0.4 0 0 1 -0.4,0.4L 26.4 26a 0.4,0.4 0 0 1 -0.4,-0.4L 26 25.4a 0.4,0.4 0 0 0 -0.4,-0.4L 25.4 25a 0.4,0.4 0 0 1 -0.4,-0.4L 25 24.4a 0.4,0.4 0 0 1 0.4,-0.4L 25.6 24a 0.4,0.4 0 0 0 0.4,-0.4z M 13 24.4a 0.4,0.4 0 0 1 0.4,-0.4L 14.6 24a 0.4,0.4 0 0 1 0.4,0.4L 15 24.6a 0.4,0.4 0 0 1 -0.4,0.4L 14.4 25a 0.4,0.4 0 0 0 -0.4,0.4L 14 25.6a 0.4,0.4 0 0 0 0.4,0.4L 14.6 26a 0.4,0.4 0 0 0 0.4,-0.4L 15 25.4a 0.4,0.4 0 0 1 0.4,-0.4L 15.6 25a 0.4,0.4 0 0 1 0.4,0.4L 16 26.6a 0.4,0.4 0 0 1 -0.4,0.4L 11.4 27a 0.4,0.4 0 0 1 -0.4,-0.4L 11 26.4a 0.4,0.4 0 0 1 0.4,-0.4L 11.6 26a 0.4,0.4 0 0 0 0.4,-0.4L 12 25.4a 0.4,0.4 0 0 1 0.4,-0.4L 12.6 25a 0.4,0.4 0 0 0 0.4,-0.4z M 28 25.4a 0.4,0.4 0 0 1 0.4,-0.4L 28.6 25a 0.4,0.4 0 0 1 0.4,0.4L 29 25.6a 0.4,0.4 0 0 1 -0.4,0.4L 28.4 26a 0.4,0.4 0 0 1 -0.4,-0.4z M 8 27.4a 0.4,0.4 0 0 1 0.4,-0.4L 9.6 27a 0.4,0.4 0 0 1 0.4,0.4L 10 27.6a 0.4,0.4 0 0 1 -0.4,0.4L 9.4 28a 0.4,0.4 0 0 0 -0.4,0.4L 9 28.6a 0.4,0.4 0 0 1 -0.4,0.4L 8.4 29a 0.4,0.4 0 0 1 -0.4,-0.4z M 16 27.4a 0.4,0.4 0 0 1 0.4,-0.4L 17.6 27a 0.4,0.4 0 0 1 0.4,0.4L 18 28.6a 0.4,0.4 0 0 1 -0.4,0.4L 15.4 29a 0.4,0.4 0 0 1 -0.4,-0.4L 15 28.4a 0.4,0.4 0 0 1 0.4,-0.4L 15.6 28a 0.4,0.4 0 0 0 0.4,-0.4z M 19 27.4a 0.4,0.4 0 0 1 0.4,-0.4L 19.6 27a 0.4,0.4 0 0 1 0.4,0.4L 20 28.6a 0.4,0.4 0 0 1 -0.4,0.4L 19.4 29a 0.4,0.4 0 0 1 -0.4,-0.4z M 26 27.4a 0.4,0.4 0 0 1 0.4,-0.4L 28.6 27a 0.4,0.4 0 0 1 0.4,0.4L 29 27.6a 0.4,0.4 0 0 1 -0.4,0.4L 28.4 28a 0.4,0.4 0 0 0 -0.4,0.4L 28 28.6a 0.4,0.4 0 0 1 -0.4,0.4L 26.4 29a 0.4,0.4 0 0 1 -0.4,-0.4z M 12 28.4a 0.4,0.4 0 0 1 0.4,-0.4L 12.6 28a 0.4,0.4 0 0 1 0.4,0.4L 13 28.6a 0.4,0.4 0 0 1 -0.4,0.4L 12.4 29a 0.4,0.4 0 0 1 -0.4,-0.4z"></path><path id="qr squares" d="M1.05,0h4.9a1.05,1.05 0 0 1 1.05,1.05v4.9a1.05,1.05 0 0 1 -1.05,1.05h-4.9a1.05,1.05 0 0 1 -1.05,-1.05v-4.9a1.05,1.05 0 0 1 1.05,-1.05zM1.75,1h3.5a0.75,0.75 0 0 1 0.75,0.75v3.5a0.75,0.75 0 0 1 -0.75,0.75h-3.5a0.75,0.75 0 0 1 -0.75,-0.75v-3.5a0.75,0.75 0 0 1 0.75,-0.75zM2.45,2h2.1a0.44999999999999996,0.44999999999999996 0 0 1 0.44999999999999996,0.44999999999999996v2.1a0.44999999999999996,0.44999999999999996 0 0 1 -0.44999999999999996,0.44999999999999996h-2.1a0.44999999999999996,0.44999999999999996 0 0 1 -0.44999999999999996,-0.44999999999999996v-2.1a0.44999999999999996,0.44999999999999996 0 0 1 0.44999999999999996,-0.44999999999999996z M23.05,0h4.9a1.05,1.05 0 0 1 1.05,1.05v4.9a1.05,1.05 0 0 1 -1.05,1.05h-4.9a1.05,1.05 0 0 1 -1.05,-1.05v-4.9a1.05,1.05 0 0 1 1.05,-1.05zM23.75,1h3.5a0.75,0.75 0 0 1 0.75,0.75v3.5a0.75,0.75 0 0 1 -0.75,0.75h-3.5a0.75,0.75 0 0 1 -0.75,-0.75v-3.5a0.75,0.75 0 0 1 0.75,-0.75zM24.45,2h2.1a0.44999999999999996,0.44999999999999996 0 0 1 0.44999999999999996,0.44999999999999996v2.1a0.44999999999999996,0.44999999999999996 0 0 1 -0.44999999999999996,0.44999999999999996h-2.1a0.44999999999999996,0.44999999999999996 0 0 1 -0.44999999999999996,-0.44999999999999996v-2.1a0.44999999999999996,0.44999999999999996 0 0 1 0.44999999999999996,-0.44999999999999996z M1.05,22h4.9a1.05,1.05 0 0 1 1.05,1.05v4.9a1.05,1.05 0 0 1 -1.05,1.05h-4.9a1.05,1.05 0 0 1 -1.05,-1.05v-4.9a1.05,1.05 0 0 1 1.05,-1.05zM1.75,23h3.5a0.75,0.75 0 0 1 0.75,0.75v3.5a0.75,0.75 0 0 1 -0.75,0.75h-3.5a0.75,0.75 0 0 1 -0.75,-0.75v-3.5a0.75,0.75 0 0 1 0.75,-0.75zM2.45,24h2.1a0.44999999999999996,0.44999999999999996 0 0 1 0.44999999999999996,0.44999999999999996v2.1a0.44999999999999996,0.44999999999999996 0 0 1 -0.44999999999999996,0.44999999999999996h-2.1a0.44999999999999996,0.44999999999999996 0 0 1 -0.44999999999999996,-0.44999999999999996v-2.1a0.44999999999999996,0.44999999999999996 0 0 1 0.44999999999999996,-0.44999999999999996z" fill-rule="evenodd" fill-opacity="1" fill="rgb(228, 103, 103)"></path><image x="9.5" y="9.5" xlink:href="data:image/svg+xml;utf8,%3C%3Fxml%20version%3D%221.0%22%20encoding%3D%22utf-8%22%20standalone%3D%22yes%22%3F%3E%20%3Csvg%20class%3D%22MuiSvgIcon-root%20MuiSvgIcon-fontSizeMedium%20css-vubbuv%22%20focusable%3D%22false%22%20aria-hidden%3D%22true%22%20viewBox%3D%220%200%2024%2024%22%20data-testid%3D%22RocketLaunchIcon%22%20fill%3D%22%23E46767%22%20width%3D%2224%22%20height%3D%2224%22%20xmlns%3D%22http%3A%2F%2Fwww.w3.org%2F2000%2Fsvg%22%20xmlns%3Axlink%3D%22http%3A%2F%2Fwww.w3.org%2F1999%2Fxlink%22%3E%3Cpath%20d%3D%22M9.19%206.35c-2.04%202.29-3.44%205.58-3.57%205.89L2%2010.69l4.05-4.05c.47-.47%201.15-.68%201.81-.55l1.33.26zM11.17%2017s3.74-1.55%205.89-3.7c5.4-5.4%204.5-9.62%204.21-10.57-.95-.3-5.17-1.19-10.57%204.21C8.55%209.09%207%2012.83%207%2012.83L11.17%2017zm6.48-2.19c-2.29%202.04-5.58%203.44-5.89%203.57L13.31%2022l4.05-4.05c.47-.47.68-1.15.55-1.81l-.26-1.33zM9%2018c0%20.83-.34%201.58-.88%202.12C6.94%2021.3%202%2022%202%2022s.7-4.94%201.88-6.12C4.42%2015.34%205.17%2015%206%2015c1.66%200%203%201.34%203%203zm4-9c0-1.1.9-2%202-2s2%20.9%202%202-.9%202-2%202-2-.9-2-2z%22%3E%3C%2Fpath%3E%3C%2Fsvg%3E" width="10" height="10" id="qr logo"></image></svg>