<svg width="100%" height="100%" viewBox="-1 -1 27 27" xmlns="http://www.w3.org/2000/svg" xmlns:xlink="http://www.w3.org/1999/xlink" shape-rendering="geometricPrecision" id="qr code"><rect id="qr background" fill-opacity="1" fill="rgb(255, 255, 255)" x="-1" y="-1" width="27" height="27" ry="1.3499999999999999"></rect><path fill-opacity="1" fill="rgb(123, 31, 162)" id="qr dark pixels" fill-rule="evenodd" d="M 8 0.4a 0.4,0.4 0 0 1 0.4,-0.4L 8.6 0a 0.4,0.4 0 0 1 0.4,0.4L 9 0.6a 0.4,0.4 0 0 1 -0.4,0.4L 8.4 1a 0.4,0.4 0 0 1 -0.4,-0.4z M 10 0.4a 0.4,0.4 0 0 1 0.4,-0.4L 12.6 0a 0.4,0.4 0 0 1 0.4,0.4L 13 0.6a 0.4,0.4 0 0 1 -0.4,0.4L 11.4 1a 0.4,0.4 0 0 0 -0.4,0.4L 11 1.6a 0.4,0.4 0 0 1 -0.4,0.4L 10.4 2a 0.4,0.4 0 0 1 -0.4,-0.4z M 14 0.4a 0.4,0.4 0 0 1 0.4,-0.4L 15.6 0a 0.4,0.4 0 0 1 0.4,0.4L 16 0.6a 0.4,0.4 0 0 1 -0.4,0.4L 14.4 1a 0.4,0.4 0 0 1 -0.4,-0.4z M 13 1.4a 0.4,0.4 0 0 1 0.4,-0.4L 13.6 1a 0.4,0.4 0 0 1 0.4,0.4L 14 2.6a 0.4,0.4 0 0 1 -0.4,0.4L 13.4 3a 0.4,0.4 0 0 0 -0.4,0.4L 13 3.6a 0.4,0.4 0 0 1 -0.4,0.4L 12.4 4a 0.4,0.4 0 0 1 -0.4,-0.4L 12 2.4a 0.4,0.4 0 0 1 0.4,-0.4L 12.6 2a 0.4,0.4 0 0 0 0.4,-0.4z M 8 2.4a 0.4,0.4 0 0 1 0.4,-0.4L 8.6 2a 0.4,0.4 0 0 1 0.4,0.4L 9 2.6a 0.4,0.4 0 0 1 -0.4,0.4L 8.4 3a 0.4,0.4 0 0 1 -0.4,-0.4z M 10 3.4a 0.4,0.4 0 0 1 0.4,-0.4L 10.6 3a 0.4,0.4 0 0 1 0.4,0.4L 11 3.6a 0.4,0.4 0 0 1 -0.4,0.4L 10.4 4a 0.4,0.4 0 0 1 -0.4,-0.4z M 16 3.4a 0.4,0.4 0 0 1 0.4,-0.4L 16.6 3a 0.4,0.4 0 0 1 0.4,0.4L 17 3.6a 0.4,0.4 0 0 1 -0.4,0.4L 16.4 4a 0.4,0.4 0 0 1 -0.4,-0.4z M 8 4.4a 0.4,0.4 0 0 1 0.4,-0.4L 9.6 4a 0.4,0.4 0 0 1 0.4,0.4L 10 6.6a 0.4,0.4 0 0 0 0.4,0.4L 10.6 7a 0.4,0.4 0 0 0 0.4,-0.4L 11 4.4a 0.4,0.4 0 0 1 0.4,-0.4L 11.6 4a 0.4,0.4 0 0 1 0.4,0.4L 12 4.6a 0.4,0.4 0 0 0 0.4,0.4L 12.6 5a 0.4,0.4 0 0 1 0.4,0.4L 13 5.6a 0.4,0.4 0 0 1 -0.4,0.4L 12.4 6a 0.4,0.4 0 0 0 -0.4,0.4L 12 8.6a 0.4,0.4 0 0 0 0.4,0.4L 13.6 9a 0.4,0.4 0 0 0 0.4,-0.4L 14 8.4a 0.4,0.4 0 0 1 0.4,-0.4L 14.6 8a 0.4,0.4 0 0 1 0.4,0.4L 15 8.6a 0.4,0.4 0 0 0 0.4,0.4L 15.6 9a 0.4,0.4 0 0 1 0.4,0.4L 16 9.6a 0.4,0.4 0 0 1 -0.4,0.4L 15.4 10a 0.4,0.4 0 0 0 -0.4,0.4L 15 11.6a 0.4,0.4 0 0 1 -0.4,0.4L 13.4 12a 0.4,0.4 0 0 0 -0.4,0.4L 13 12.6a 0.4,0.4 0 0 1 -0.4,0.4L 12.4 13a 0.4,0.4 0 0 1 -0.4,-0.4L 12 11.4a 0.4,0.4 0 0 1 0.4,-0.4L 12.6 11a 0.4,0.4 0 0 0 0.4,-0.4L 13 10.4a 0.4,0.4 0 0 0 -0.4,-0.4L 11.4 10a 0.4,0.4 0 0 0 -0.4,0.4L 11 10.6a 0.4,0.4 0 0 1 -0.4,0.4L 10.4 11a 0.4,0.4 0 0 1 -0.4,-0.4L 10 9.4a 0.4,0.4 0 0 1 0.4,-0.4L 10.6 9a 0.4,0.4 0 0 0 0.4,-0.4L 11 8.4a 0.4,0.4 0 0 0 -0.4,-0.4L 8.4 8a 0.4,0.4 0 0 1 -0.4,-0.4L 8 7.4a 0.4,0.4 0 0 1 0.4,-0.4L 8.6 7a 0.4,0.4 0 0 0 0.4,-0.4L 9 5.4a 0.4,0.4 0 0 0 -0.4,-0.4L 8.4 5a 0.4,0.4 0 0 1 -0.4,-0.4z M 14 4.4a 0.4,0.4 0 0 1 0.4,-0.4L 15.6 4a 0.4,0.4 0 0 1 0.4,0.4L 16 4.6a 0.4,0.4 0 0 1 -0.4,0.4L 14.4 5a 0.4,0.4 0 0 1 -0.4,-0.4z M 16 5.4a 0.4,0.4 0 0 1 0.4,-0.4L 16.6 5a 0.4,0.4 0 0 1 0.4,0.4L 17 5.6a 0.4,0.4 0 0 1 -0.4,0.4L 16.4 6a 0.4,0.4 0 0 1 -0.4,-0.4z M 13 6.4a 0.4,0.4 0 0 1 0.4,-0.4L 13.6 6a 0.4,0.4 0 0 1 0.4,0.4L 14 7.6a 0.4,0.4 0 0 1 -0.4,0.4L 13.4 8a 0.4,0.4 0 0 1 -0.4,-0.4z M 15 6.4a 0.4,0.4 0 0 1 0.4,-0.4L 15.6 6a 0.4,0.4 0 0 1 0.4,0.4L 16 6.6a 0.4,0.4 0 0 1 -0.4,0.4L 15.4 7a 0.4,0.4 0 0 1 -0.4,-0.4z M 5 8.4a 0.4,0.4 0 0 1 0.4,-0.4L 5.6 8a 0.4,0.4 0 0 1 0.4,0.4L 6 8.6a 0.4,0.4 0 0 1 -0.4,0.4L 5.4 9a 0.4,0.4 0 0 1 -0.4,-0.4z M 16 8.4a 0.4,0.4 0 0 1 0.4,-0.4L 16.6 8a 0.4,0.4 0 0 1 0.4,0.4L 17 8.6a 0.4,0.4 0 0 1 -0.4,0.4L 16.4 9a 0.4,0.4 0 0 1 -0.4,-0.4z M 18 8.4a 0.4,0.4 0 0 1 0.4,-0.4L 18.6 8a 0.4,0.4 0 0 1 0.4,0.4L 19 9.6a 0.4,0.4 0 0 1 -0.4,0.4L 18.4 10a 0.4,0.4 0 0 1 -0.4,-0.4z M 20 8.4a 0.4,0.4 0 0 1 0.4,-0.4L 20.6 8a 0.4,0.4 0 0 1 0.4,0.4L 21 9.6a 0.4,0.4 0 0 1 -0.4,0.4L 20.4 10a 0.4,0.4 0 0 1 -0.4,-0.4z M 22 8.4a 0.4,0.4 0 0 1 0.4,-0.4L 22.6 8a 0.4,0.4 0 0 1 0.4,0.4L 23 8.6a 0.4,0.4 0 0 1 -0.4,0.4L 22.4 9a 0.4,0.4 0 0 1 -0.4,-0.4z M 24 8.4a 0.4,0.4 0 0 1 0.4,-0.4L 24.6 8a 0.4,0.4 0 0 1 0.4,0.4L 25 9.6a 0.4,0.4 0 0 1 -0.4,0.4L 23.4 10a 0.4,0.4 0 0 1 -0.4,-0.4L 23 9.4a 0.4,0.4 0 0 1 0.4,-0.4L 23.6 9a 0.4,0.4 0 0 0 0.4,-0.4z M 0 9.4a 0.4,0.4 0 0 1 0.4,-0.4L 0.6 9a 0.4,0.4 0 0 1 0.4,0.4L 1 9.6a 0.4,0.4 0 0 1 -0.4,0.4L 0.4 10a 0.4,0.4 0 0 1 -0.4,-0.4z M 2 9.4a 0.4,0.4 0 0 1 0.4,-0.4L 2.6 9a 0.4,0.4 0 0 1 0.4,0.4L 3 9.6a 0.4,0.4 0 0 1 -0.4,0.4L 2.4 10a 0.4,0.4 0 0 1 -0.4,-0.4z M 4 9.4a 0.4,0.4 0 0 1 0.4,-0.4L 4.6 9a 0.4,0.4 0 0 1 0.4,0.4L 5 10.6a 0.4,0.4 0 0 0 0.4,0.4L 6.6 11a 0.4,0.4 0 0 1 0.4,0.4L 7 11.6a 0.4,0.4 0 0 1 -0.4,0.4L 6.4 12a 0.4,0.4 0 0 0 -0.4,0.4L 6 12.6a 0.4,0.4 0 0 1 -0.4,0.4L 5.4 13a 0.4,0.4 0 0 1 -0.4,-0.4L 5 12.4a 0.4,0.4 0 0 0 -0.4,-0.4L 4.4 12a 0.4,0.4 0 0 0 -0.4,0.4L 4 12.6a 0.4,0.4 0 0 0 0.4,0.4L 4.6 13a 0.4,0.4 0 0 1 0.4,0.4L 5 13.6a 0.4,0.4 0 0 1 -0.4,0.4L 3.4 14a 0.4,0.4 0 0 0 -0.4,0.4L 3 14.6a 0.4,0.4 0 0 1 -0.4,0.4L 2.4 15a 0.4,0.4 0 0 0 -0.4,0.4L 2 15.6a 0.4,0.4 0 0 0 0.4,0.4L 3.6 16a 0.4,0.4 0 0 1 0.4,0.4L 4 16.6a 0.4,0.4 0 0 1 -0.4,0.4L 1.4 17a 0.4,0.4 0 0 1 -0.4,-0.4L 1 14.4a 0.4,0.4 0 0 1 0.4,-0.4L 1.6 14a 0.4,0.4 0 0 0 0.4,-0.4L 2 13.4a 0.4,0.4 0 0 0 -0.4,-0.4L 0.4 13a 0.4,0.4 0 0 1 -0.4,-0.4L 0 11.4a 0.4,0.4 0 0 1 0.4,-0.4L 0.6 11a 0.4,0.4 0 0 1 0.4,0.4L 1 11.6a 0.4,0.4 0 0 0 0.4,0.4L 2.6 12a 0.4,0.4 0 0 0 0.4,-0.4L 3 10.4a 0.4,0.4 0 0 1 0.4,-0.4L 3.6 10a 0.4,0.4 0 0 0 0.4,-0.4z M 6 9.4a 0.4,0.4 0 0 1 0.4,-0.4L 8.6 9a 0.4,0.4 0 0 1 0.4,0.4L 9 9.6a 0.4,0.4 0 0 1 -0.4,0.4L 6.4 10a 0.4,0.4 0 0 1 -0.4,-0.4z M 16 10.4a 0.4,0.4 0 0 1 0.4,-0.4L 16.6 10a 0.4,0.4 0 0 1 0.4,0.4L 17 13.6a 0.4,0.4 0 0 1 -0.4,0.4L 15.4 14a 0.4,0.4 0 0 0 -0.4,0.4L 15 14.6a 0.4,0.4 0 0 1 -0.4,0.4L 14.4 15a 0.4,0.4 0 0 1 -0.4,-0.4L 14 14.4a 0.4,0.4 0 0 0 -0.4,-0.4L 13.4 14a 0.4,0.4 0 0 1 -0.4,-0.4L 13 13.4a 0.4,0.4 0 0 1 0.4,-0.4L 15.6 13a 0.4,0.4 0 0 0 0.4,-0.4z M 19 10.4a 0.4,0.4 0 0 1 0.4,-0.4L 19.6 10a 0.4,0.4 0 0 1 0.4,0.4L 20 12.6a 0.4,0.4 0 0 1 -0.4,0.4L 19.4 13a 0.4,0.4 0 0 1 -0.4,-0.4z M 21 10.4a 0.4,0.4 0 0 1 0.4,-0.4L 22.6 10a 0.4,0.4 0 0 1 0.4,0.4L 23 10.6a 0.4,0.4 0 0 0 0.4,0.4L 23.6 11a 0.4,0.4 0 0 1 0.4,0.4L 24 11.6a 0.4,0.4 0 0 0 0.4,0.4L 24.6 12a 0.4,0.4 0 0 1 0.4,0.4L 25 13.6a 0.4,0.4 0 0 1 -0.4,0.4L 22.4 14a 0.4,0.4 0 0 1 -0.4,-0.4L 22 13.4a 0.4,0.4 0 0 1 0.4,-0.4L 22.6 13a 0.4,0.4 0 0 0 0.4,-0.4L 23 12.4a 0.4,0.4 0 0 0 -0.4,-0.4L 22.4 12a 0.4,0.4 0 0 0 -0.4,0.4L 22 12.6a 0.4,0.4 0 0 1 -0.4,0.4L 21.4 13a 0.4,0.4 0 0 1 -0.4,-0.4z M 8 11.4a 0.4,0.4 0 0 1 0.4,-0.4L 8.6 11a 0.4,0.4 0 0 1 0.4,0.4L 9 12.6a 0.4,0.4 0 0 0 0.4,0.4L 9.6 13a 0.4,0.4 0 0 1 0.4,0.4L 10 13.6a 0.4,0.4 0 0 1 -0.4,0.4L 9.4 14a 0.4,0.4 0 0 0 -0.4,0.4L 9 15.6a 0.4,0.4 0 0 1 -0.4,0.4L 8.4 16a 0.4,0.4 0 0 0 -0.4,0.4L 8 16.6a 0.4,0.4 0 0 1 -0.4,0.4L 7.4 17a 0.4,0.4 0 0 1 -0.4,-0.4L 7 16.4a 0.4,0.4 0 0 0 -0.4,-0.4L 6.4 16a 0.4,0.4 0 0 0 -0.4,0.4L 6 16.6a 0.4,0.4 0 0 1 -0.4,0.4L 5.4 17a 0.4,0.4 0 0 1 -0.4,-0.4L 5 14.4a 0.4,0.4 0 0 1 0.4,-0.4L 5.6 14a 0.4,0.4 0 0 1 0.4,0.4L 6 14.6a 0.4,0.4 0 0 0 0.4,0.4L 6.6 15a 0.4,0.4 0 0 0 0.4,-0.4L 7 14.4a 0.4,0.4 0 0 1 0.4,-0.4L 7.6 14a 0.4,0.4 0 0 0 0.4,-0.4L 8 13.4a 0.4,0.4 0 0 0 -0.4,-0.4L 7.4 13a 0.4,0.4 0 0 1 -0.4,-0.4L 7 12.4a 0.4,0.4 0 0 1 0.4,-0.4L 7.6 12a 0.4,0.4 0 0 0 0.4,-0.4z M 10 12.4a 0.4,0.4 0 0 1 0.4,-0.4L 10.6 12a 0.4,0.4 0 0 1 0.4,0.4L 11 12.6a 0.4,0.4 0 0 1 -0.4,0.4L 10.4 13a 0.4,0.4 0 0 1 -0.4,-0.4z M 6 13.4a 0.4,0.4 0 0 1 0.4,-0.4L 6.6 13a 0.4,0.4 0 0 1 0.4,0.4L 7 13.6a 0.4,0.4 0 0 1 -0.4,0.4L 6.4 14a 0.4,0.4 0 0 1 -0.4,-0.4z M 11 13.4a 0.4,0.4 0 0 1 0.4,-0.4L 11.6 13a 0.4,0.4 0 0 1 0.4,0.4L 12 13.6a 0.4,0.4 0 0 0 0.4,0.4L 12.6 14a 0.4,0.4 0 0 1 0.4,0.4L 13 14.6a 0.4,0.4 0 0 1 -0.4,0.4L 12.4 15a 0.4,0.4 0 0 0 -0.4,0.4L 12 16.6a 0.4,0.4 0 0 0 0.4,0.4L 12.6 17a 0.4,0.4 0 0 1 0.4,0.4L 13 17.6a 0.4,0.4 0 0 1 -0.4,0.4L 11.4 18a 0.4,0.4 0 0 0 -0.4,0.4L 11 18.6a 0.4,0.4 0 0 1 -0.4,0.4L 9.4 19a 0.4,0.4 0 0 1 -0.4,-0.4L 9 16.4a 0.4,0.4 0 0 1 0.4,-0.4L 9.6 16a 0.4,0.4 0 0 1 0.4,0.4L 10 16.6a 0.4,0.4 0 0 0 0.4,0.4L 10.6 17a 0.4,0.4 0 0 0 0.4,-0.4z M 18 13.4a 0.4,0.4 0 0 1 0.4,-0.4L 18.6 13a 0.4,0.4 0 0 1 0.4,0.4L 19 13.6a 0.4,0.4 0 0 1 -0.4,0.4L 18.4 14a 0.4,0.4 0 0 1 -0.4,-0.4z M 20 13.4a 0.4,0.4 0 0 1 0.4,-0.4L 20.6 13a 0.4,0.4 0 0 1 0.4,0.4L 21 13.6a 0.4,0.4 0 0 0 0.4,0.4L 21.6 14a 0.4,0.4 0 0 1 0.4,0.4L 22 14.6a 0.4,0.4 0 0 1 -0.4,0.4L 21.4 15a 0.4,0.4 0 0 0 -0.4,0.4L 21 15.6a 0.4,0.4 0 0 1 -0.4,0.4L 18.4 16a 0.4,0.4 0 0 1 -0.4,-0.4L 18 15.4a 0.4,0.4 0 0 1 0.4,-0.4L 18.6 15a 0.4,0.4 0 0 0 0.4,-0.4L 19 14.4a 0.4,0.4 0 0 1 0.4,-0.4L 19.6 14a 0.4,0.4 0 0 0 0.4,-0.4z M 17 14.4a 0.4,0.4 0 0 1 0.4,-0.4L 17.6 14a 0.4,0.4 0 0 1 0.4,0.4L 18 14.6a 0.4,0.4 0 0 1 -0.4,0.4L 17.4 15a 0.4,0.4 0 0 1 -0.4,-0.4z M 13 15.4a 0.4,0.4 0 0 1 0.4,-0.4L 13.6 15a 0.4,0.4 0 0 1 0.4,0.4L 14 15.6a 0.4,0.4 0 0 1 -0.4,0.4L 13.4 16a 0.4,0.4 0 0 1 -0.4,-0.4z M 16 15.4a 0.4,0.4 0 0 1 0.4,-0.4L 16.6 15a 0.4,0.4 0 0 1 0.4,0.4L 17 15.6a 0.4,0.4 0 0 1 -0.4,0.4L 16.4 16a 0.4,0.4 0 0 1 -0.4,-0.4z M 22 15.4a 0.4,0.4 0 0 1 0.4,-0.4L 23.6 15a 0.4,0.4 0 0 1 0.4,0.4L 24 15.6a 0.4,0.4 0 0 1 -0.4,0.4L 22.4 16a 0.4,0.4 0 0 1 -0.4,-0.4z M 14 17.4a 0.4,0.4 0 0 1 0.4,-0.4L 14.6 17a 0.4,0.4 0 0 1 0.4,0.4L 15 17.6a 0.4,0.4 0 0 1 -0.4,0.4L 14.4 18a 0.4,0.4 0 0 1 -0.4,-0.4z M 17 17.4a 0.4,0.4 0 0 1 0.4,-0.4L 19.6 17a 0.4,0.4 0 0 1 0.4,0.4L 20 19.6a 0.4,0.4 0 0 1 -0.4,0.4L 17.4 20a 0.4,0.4 0 0 1 -0.4,-0.4zM 18 18.4a 0.4,0.4 0 0 1 0.4,-0.4L 18.6 18a 0.4,0.4 0 0 1 0.4,0.4L 19 18.6a 0.4,0.4 0 0 1 -0.4,0.4L 18.4 19a 0.4,0.4 0 0 1 -0.4,-0.4z M 22 17.4a 0.4,0.4 0 0 1 0.4,-0.4L 22.6 17a 0.4,0.4 0 0 1 0.4,0.4L 23 18.6a 0.4,0.4 0 0 0 0.4,0.4L 23.6 19a 0.4,0.4 0 0 1 0.4,0.4L 24 19.6a 0.4,0.4 0 0 0 0.4,0.4L 24.6 20a 0.4,0.4 0 0 1 0.4,0.4L 25 20.6a 0.4,0.4 0 0 1 -0.4,0.4L 23.4 21a 0.4,0.4 0 0 1 -0.4,-0.4L 23 20.4a 0.4,0.4 0 0 0 -0.4,-0.4L 21.4 20a 0.4,0.4 0 0 1 -0.4,-0.4L 21 19.4a 0.4,0.4 0 0 1 0.4,-0.4L 21.6 19a 0.4,0.4 0 0 0 0.4,-0.4z M 24 17.4a 0.4,0.4 0 0 1 0.4,-0.4L 24.6 17a 0.4,0.4 0 0 1 0.4,0.4L 25 17.6a 0.4,0.4 0 0 1 -0.4,0.4L 24.4 18a 0.4,0.4 0 0 1 -0.4,-0.4z M 15 18.4a 0.4,0.4 0 0 1 0.4,-0.4L 15.6 18a 0.4,0.4 0 0 1 0.4,0.4L 16 19.6a 0.4,0.4 0 0 1 -0.4,0.4L 15.4 20a 0.4,0.4 0 0 1 -0.4,-0.4z M 8 19.4a 0.4,0.4 0 0 1 0.4,-0.4L 8.6 19a 0.4,0.4 0 0 1 0.4,0.4L 9 19.6a 0.4,0.4 0 0 1 -0.4,0.4L 8.4 20a 0.4,0.4 0 0 1 -0.4,-0.4z M 12 19.4a 0.4,0.4 0 0 1 0.4,-0.4L 13.6 19a 0.4,0.4 0 0 1 0.4,0.4L 14 19.6a 0.4,0.4 0 0 1 -0.4,0.4L 12.4 20a 0.4,0.4 0 0 1 -0.4,-0.4z M 9 20.4a 0.4,0.4 0 0 1 0.4,-0.4L 10.6 20a 0.4,0.4 0 0 1 0.4,0.4L 11 20.6a 0.4,0.4 0 0 0 0.4,0.4L 11.6 21a 0.4,0.4 0 0 1 0.4,0.4L 12 21.6a 0.4,0.4 0 0 0 0.4,0.4L 12.6 22a 0.4,0.4 0 0 0 0.4,-0.4L 13 21.4a 0.4,0.4 0 0 1 0.4,-0.4L 14.6 21a 0.4,0.4 0 0 1 0.4,0.4L 15 21.6a 0.4,0.4 0 0 1 -0.4,0.4L 14.4 22a 0.4,0.4 0 0 0 -0.4,0.4L 14 22.6a 0.4,0.4 0 0 0 0.4,0.4L 14.6 23a 0.4,0.4 0 0 1 0.4,0.4L 15 23.6a 0.4,0.4 0 0 1 -0.4,0.4L 12.4 24a 0.4,0.4 0 0 0 -0.4,0.4L 12 24.6a 0.4,0.4 0 0 1 -0.4,0.4L 11.4 25a 0.4,0.4 0 0 1 -0.4,-0.4L 11 24.4a 0.4,0.4 0 0 0 -0.4,-0.4L 10.4 24a 0.4,0.4 0 0 1 -0.4,-0.4L 10 23.4a 0.4,0.4 0 0 1 0.4,-0.4L 10.6 23a 0.4,0.4 0 0 0 0.4,-0.4L 11 22.4a 0.4,0.4 0 0 0 -0.4,-0.4L 9.4 22a 0.4,0.4 0 0 1 -0.4,-0.4z M 16 21.4a 0.4,0.4 0 0 1 0.4,-0.4L 16.6 21a 0.4,0.4 0 0 1 0.4,0.4L 17 22.6a 0.4,0.4 0 0 1 -0.4,0.4L 16.4 23a 0.4,0.4 0 0 1 -0.4,-0.4z M 19 21.4a 0.4,0.4 0 0 1 0.4,-0.4L 19.6 21a 0.4,0.4 0 0 1 0.4,0.4L 20 21.6a 0.4,0.4 0 0 0 0.4,0.4L 23.6 22a 0.4,0.4 0 0 1 0.4,0.4L 24 23.6a 0.4,0.4 0 0 1 -0.4,0.4L 22.4 24a 0.4,0.4 0 0 0 -0.4,0.4L 22 24.6a 0.4,0.4 0 0 1 -0.4,0.4L 19.4 25a 0.4,0.4 0 0 1 -0.4,-0.4L 19 24.4a 0.4,0.4 0 0 1 0.4,-0.4L 20.6 24a 0.4,0.4 0 0 0 0.4,-0.4L 21 23.4a 0.4,0.4 0 0 0 -0.4,-0.4L 18.4 23a 0.4,0.4 0 0 1 -0.4,-0.4L 18 22.4a 0.4,0.4 0 0 1 0.4,-0.4L 18.6 22a 0.4,0.4 0 0 0 0.4,-0.4z M 16 24.4a 0.4,0.4 0 0 1 0.4,-0.4L 17.6 24a 0.4,0.4 0 0 1 0.4,0.4L 18 24.6a 0.4,0.4 0 0 1 -0.4,0.4L 16.4 25a 0.4,0.4 0 0 1 -0.4,-0.4z"></path><path id="qr squares" d="M1.05,0h4.9a1.05,1.05 0 0 1 1.05,1.05v4.9a1.05,1.05 0 0 1 -1.05,1.05h-4.9a1.05,1.05 0 0 1 -1.05,-1.05v-4.9a1.05,1.05 0 0 1 1.05,-1.05zM1.75,1h3.5a0.75,0.75 0 0 1 0.75,0.75v3.5a0.75,0.75 0 0 1 -0.75,0.75h-3.5a0.75,0.75 0 0 1 -0.75,-0.75v-3.5a0.75,0.75 0 0 1 0.75,-0.75zM2.45,2h2.1a0.44999999999999996,0.44999999999999996 0 0 1 0.44999999999999996,0.44999999999999996v2.1a0.44999999999999996,0.44999999999999996 0 0 1 -0.44999999999999996,0.44999999999999996h-2.1a0.44999999999999996,0.44999999999999996 0 0 1 -0.44999999999999996,-0.44999999999999996v-2.1a0.44999999999999996,0.44999999999999996 0 0 1 0.44999999999999996,-0.44999999999999996z M19.05,0h4.9a1.05,1.05 0 0 1 1.05,1.05v4.9a1.05,1.05 0 0 1 -1.05,1.05h-4.9a1.05,1.05 0 0 1 -1.05,-1.05v-4.9a1.05,1.05 0 0 1 1.05,-1.05zM19.75,1h3.5a0.75,0.75 0 0 1 0.75,0.75v3.5a0.75,0.75 0 0 1 -0.75,0.75h-3.5a0.75,0.75 0 0 1 -0.75,-0.75v-3.5a0.75,0.75 0 0 1 0.75,-0.75zM20.45,2h2.1a0.44999999999999996,0.44999999999999996 0 0 1 0.44999999999999996,0.44999999999999996v2.1a0.44999999999999996,0.44999999999999996 0 0 1 -0.44999999999999996,0.44999999999999996h-2.1a0.44999999999999996,0.44999999999999996 0 0 1 -0.44999999999999996,-0.44999999999999996v-2.1a0.44999999999999996,0.44999999999999996 0 0 1 0.44999999999999996,-0.44999999999999996z M1.05,18h4.9a1.05,1.05 0 0 1 1.05,1.05v4.9a1.05,1.05 0 0 1 -1.05,1.05h-4.9a1.05,1.05 0 0 1 -1.05,-1.05v-4.9a1.05,1.05 0 0 1 1.05,-1.05zM1.75,19h3.5a0.75,0.75 0 0 1 0.75,0.75v3.5a0.75,0.75 0 0 1 -0.75,0.75h-3.5a0.75,0.75 0 0 1 -0.75,-0.75v-3.5a0.75,0.75 0 0 1 0.75,-0.75zM2.45,20h2.1a0.44999999999999996,0.44999999999999996 0 0 1 0.44999999999999996,0.44999999999999996v2.1a0.44999999999999996,0.44999999999999996 0 0 1 -0.44999999999999996,0.44999999999999996h-2.1a0.44999999999999996,0.44999999999999996 0 0 1 -0.44999999999999996,-0.44999999999999996v-2.1a0.44999999999999996,0.44999999999999996 0 0 1 0.44999999999999996,-0.44999999999999996z" fill-rule="evenodd" fill-opacity="1" fill="rgb(81, 45, 168)"></path></svg>